<svg width="90" height="40" viewBox="0 0 90 40" fill="none" xmlns="http://www.w3.org/2000/svg">
<g clip-path="url(#clip0_233_859)">
<mask id="path-1-inside-1_233_859" fill="white">
<path d="M16.1815 28.8026L16.2917 28.855L16.5711 28.8488L16.6938 29.007L16.6801 29.0984L16.7528 29.1241L17.1481 29.0532L17.1912 29.1138L17.4332 29.1714L17.6672 29.3059L17.6887 29.4056L17.95 29.5103L18.3191 29.4641L18.4486 29.8627L18.552 29.9685L18.7859 30.0096L19.1948 29.9746L19.3311 29.8812L19.3379 29.5648L19.4288 29.5062H19.598L19.7605 29.5884L19.9036 29.8873L19.9751 30.0989L19.8513 30.3619L19.9695 30.4544L20.066 30.7276H20.1569L20.3454 30.5047L20.6112 30.3403L20.6566 30.3701L20.9678 30.1647L21.0712 30.1236L21.1564 30.1544L21.2177 30.1041L21.2211 29.9418L21.0587 29.836L21.1836 29.6562L21.5198 29.6254L21.8504 29.8072L21.9889 29.8278L22.2979 29.5607L22.6284 29.537L22.5977 29.345L22.985 29.1775L23.7154 28.9957H23.8744L23.98 29.0727L24.022 29.1878L23.9062 29.6182L24.0754 29.8093V29.8863L23.7688 30.0876L23.8426 30.1647L24.3298 30.3373L24.4571 30.442L24.5104 30.5756V30.7091L24.172 30.9772L24.5207 31.082L24.6263 31.1488L24.6683 31.2536L24.5729 31.5402L24.7206 31.7312L24.7308 31.8555L24.5513 32.2664L24.5616 32.4L25.0057 32.477L25.3021 32.6496L25.5247 33.157L25.7042 33.3676H25.8518L25.9791 33.2238L26.0745 33.195L26.2539 33.2618L26.2857 33.3573L26.4016 33.4436L26.2857 33.5587L26.455 33.6645L26.7094 33.9418L26.7832 34.1997L26.6776 34.2664L26.6458 34.4678L26.3709 34.6301L25.7576 34.8119L25.6724 34.9074L25.3975 34.9362L25.1329 35.2228L24.741 35.3091L24.6354 35.3861L24.2753 35.4817L24.0323 35.3574L23.662 35.3286L23.4712 35.3481L23.0589 35.5207L22.8794 35.3481L22.4455 35.3389L22.0435 35.0523L21.7368 35.0143L21.3767 35.0625L21.1121 34.8612L20.7316 34.8129L20.5408 34.7359L20.4136 34.6496L20.3602 34.4873L19.9047 34.4298L19.7139 34.7646L19.5765 34.8417L18.9313 34.8992L18.8359 34.9567L18.5292 35.4447L18.4872 35.7415L18.3759 35.8792L18.2158 35.7867L18.1249 35.7929L18.1317 35.9223L17.6649 36.022L17.5865 36.2274L17.5081 36.2685L17.1708 36.2387L16.9346 36.3209L16.8721 36.5551L16.671 36.7719L16.4632 36.7482L16.3848 36.6137H16.294L15.8271 36.8489L15.2093 36.778L15.0275 36.813L14.9435 36.8653L14.898 36.9999L14.8401 37.5752L14.6584 37.7806L14.4891 37.8155L14.2359 37.7806L13.7952 37.5639L13.5873 37.9275L13.3988 37.8926L13.3079 37.7868L13.1909 37.7693L12.9512 37.9686L12.7434 37.9799L12.4379 37.8864L12.1914 37.6933L12.2607 37.1735L12.1005 36.9722L11.7109 36.7791L11.4122 36.1863L11.302 36.1155L10.6978 36.0107L10.4388 35.758L10.3287 35.7754L10.2378 35.8926L9.9845 35.9223L9.85161 36.0487L9.58242 36.0158L9.42 36.1976L9.01792 36.0281L8.90093 36.2439L8.73737 36.3692L8.54996 36.6435L8.16038 36.6373L8.05702 36.5551L8.0309 36.3497L7.84917 36.2089L7.74581 36.2028L7.48003 36.3784L7.36985 36.3671L6.98027 36.0446L6.69291 36.1946L6.62703 36.3158L6.38283 36.2685L6.17611 36.5438L6.01369 36.5551L5.87739 36.2798L5.63773 36.2737L5.3197 36.174L5.22884 36.2264L5.13116 36.5079L4.92558 36.5911L4.30656 36.1617L3.72956 35.986L3.55465 35.9922L3.41835 36.1093L3.25025 36.1268L3.06852 36.0795L2.99923 36.0045L2.84703 36.0384L2.61192 36.3209L2.46654 36.3322L2.3734 36.4093L2.38021 36.4914L2.15987 36.4853L1.83389 36.5798L1.73507 36.513L1.56243 36.5849L1.31595 36.5089L1.21827 36.3332H1.10015L1.02973 36.5911L0.879802 36.702L0.659453 36.5438L0.666268 36.3507L0.763948 36.2387L0.790072 36.0744L0.550415 35.4293L0.5436 35.0184L0.472044 34.7831L0.154015 34.4226V34.0394L0.0370263 33.948L0.0290756 33.8371L0.581082 33.271L0.32098 32.9393L0.469772 32.5458L0.735553 32.3496L0.807109 32.1966L0.625379 31.95L0.683305 31.8791L0.774171 31.9141L0.903654 32.1134L1.10469 32.0959L1.26711 32.2017L1.3966 32.3835L1.42954 32.818L1.72144 32.8591L1.9293 32.6978L2.11784 32.666L2.33819 32.7307L2.38362 32.6835L2.09172 32.2787L2.02698 32.0322L2.13033 31.0461L2.2212 30.9813L2.39044 30.9926L2.63009 31.1334L3.20141 30.9279L3.37632 30.9341L3.41494 31.0224L3.53193 31.0111L3.75228 30.6886L4.19298 30.4544L4.72454 30.2962L5.06528 30.3075L5.42874 30.2253L6.12273 29.9726L6.27152 29.9788L6.88145 30.3013L7.31647 30.6886L7.45277 30.6999L7.55045 30.6064L7.67993 30.6537L7.70605 30.8005L7.85485 30.9474L8.34779 30.9125L8.47159 30.9536L8.751 31.1067L8.95886 31.1241L8.97135 31.2474L9.04291 31.3059L9.55516 31.5586L10.5024 31.7877L10.7364 31.9223L10.8205 31.9932L10.775 32.1401L10.5024 32.2746L10.1197 32.5684L10.0742 32.9208L10.1322 33.044L10.2491 33.0615L10.2321 32.7821L10.2878 32.5982L10.3661 32.5458L10.6126 32.5571L11.1055 32.3044L11.0794 32.1103L11.2282 31.9172L11.3123 31.2155L11.5587 31.1221L12.4799 30.9577L12.6037 30.7636L12.5776 30.5109L12.7979 30.44L12.8888 30.5109L13.0671 30.4667L13.3488 30.3003L13.978 30.0712L14.0802 29.8308L13.8724 29.5144L13.9246 29.4025L14.0996 29.3501L14.6516 29.3326L15.0412 29.1159L15.3262 28.7995L15.7022 28.7646L16.1815 28.8026ZM14.6198 30.0157L14.6856 29.9007L14.6902 29.7343L14.6073 29.6357L14.5198 29.7343L14.5675 29.9798L14.6198 30.0157ZM19.7559 30.2212L19.7843 30.1236L19.5685 30.0671V30.1955L19.6253 30.2109L19.7559 30.2212ZM14.3528 30.6454L14.3744 30.9618L14.3085 31.4056L14.379 31.6429L14.5107 31.8093L14.6766 31.8966L15.0184 31.9439L15.115 31.9952L15.132 32.0825L15.0968 32.213L14.9787 32.2561L15.132 32.5212L14.8469 32.7708L14.781 32.9731L14.6413 33.0687L14.672 33.1396L14.8992 33.1632L15.0525 33.2854L15.1138 33.2176L15.0309 33.1303L15.0525 33.0389L15.1491 32.9321L15.2672 32.9557L15.2456 33.1735L15.3115 33.2053L15.7192 33.1539L15.9907 32.8807L16.0077 32.8098L15.9112 32.7225L15.9282 32.6116L15.8362 32.5602L15.3637 32.5756L15.3546 32.5006L15.5205 32.4328L15.5648 32.3496L15.5386 32.2387L15.4114 32.1123L15.6045 32.0569L15.8544 31.8987L15.8896 31.8309L15.8499 31.724L15.3898 31.9295L15.2888 31.9213L15.1093 31.2792L14.9423 31.2114L14.8549 31.1087L14.7845 30.78L14.605 30.4595L14.3597 30.3527L14.2415 30.4123L14.2631 30.4872L14.3528 30.6454ZM20.3352 32.6989L20.6464 32.5016L21.0587 32.551L21.1677 32.326L20.576 31.8822L20.4908 31.9736L20.5839 32.2058L20.4124 32.3322L20.1239 32.3958L20.0933 32.5088L20.3352 32.6989ZM10.3923 33.2423L10.323 33.3676L10.507 33.6593L10.5433 33.9295L10.6614 33.947L10.934 33.8514L10.9999 33.8874L11.0556 33.9881L10.9568 34.2377L10.9863 34.3568L11.2396 34.2027L11.5156 33.8463L11.8938 33.7004L12.071 33.4868L12.0222 33.3409L11.8938 33.3173L11.5451 33.4036L11.2623 33.3974L10.6444 33.2248L10.3923 33.2423Z"/>
</mask>
<path d="M16.1815 28.8026L16.2917 28.855L16.5711 28.8488L16.6938 29.007L16.6801 29.0984L16.7528 29.1241L17.1481 29.0532L17.1912 29.1138L17.4332 29.1714L17.6672 29.3059L17.6887 29.4056L17.95 29.5103L18.3191 29.4641L18.4486 29.8627L18.552 29.9685L18.7859 30.0096L19.1948 29.9746L19.3311 29.8812L19.3379 29.5648L19.4288 29.5062H19.598L19.7605 29.5884L19.9036 29.8873L19.9751 30.0989L19.8513 30.3619L19.9695 30.4544L20.066 30.7276H20.1569L20.3454 30.5047L20.6112 30.3403L20.6566 30.3701L20.9678 30.1647L21.0712 30.1236L21.1564 30.1544L21.2177 30.1041L21.2211 29.9418L21.0587 29.836L21.1836 29.6562L21.5198 29.6254L21.8504 29.8072L21.9889 29.8278L22.2979 29.5607L22.6284 29.537L22.5977 29.345L22.985 29.1775L23.7154 28.9957H23.8744L23.98 29.0727L24.022 29.1878L23.9062 29.6182L24.0754 29.8093V29.8863L23.7688 30.0876L23.8426 30.1647L24.3298 30.3373L24.4571 30.442L24.5104 30.5756V30.7091L24.172 30.9772L24.5207 31.082L24.6263 31.1488L24.6683 31.2536L24.5729 31.5402L24.7206 31.7312L24.7308 31.8555L24.5513 32.2664L24.5616 32.4L25.0057 32.477L25.3021 32.6496L25.5247 33.157L25.7042 33.3676H25.8518L25.9791 33.2238L26.0745 33.195L26.2539 33.2618L26.2857 33.3573L26.4016 33.4436L26.2857 33.5587L26.455 33.6645L26.7094 33.9418L26.7832 34.1997L26.6776 34.2664L26.6458 34.4678L26.3709 34.6301L25.7576 34.8119L25.6724 34.9074L25.3975 34.9362L25.1329 35.2228L24.741 35.3091L24.6354 35.3861L24.2753 35.4817L24.0323 35.3574L23.662 35.3286L23.4712 35.3481L23.0589 35.5207L22.8794 35.3481L22.4455 35.3389L22.0435 35.0523L21.7368 35.0143L21.3767 35.0625L21.1121 34.8612L20.7316 34.8129L20.5408 34.7359L20.4136 34.6496L20.3602 34.4873L19.9047 34.4298L19.7139 34.7646L19.5765 34.8417L18.9313 34.8992L18.8359 34.9567L18.5292 35.4447L18.4872 35.7415L18.3759 35.8792L18.2158 35.7867L18.1249 35.7929L18.1317 35.9223L17.6649 36.022L17.5865 36.2274L17.5081 36.2685L17.1708 36.2387L16.9346 36.3209L16.8721 36.5551L16.671 36.7719L16.4632 36.7482L16.3848 36.6137H16.294L15.8271 36.8489L15.2093 36.778L15.0275 36.813L14.9435 36.8653L14.898 36.9999L14.8401 37.5752L14.6584 37.7806L14.4891 37.8155L14.2359 37.7806L13.7952 37.5639L13.5873 37.9275L13.3988 37.8926L13.3079 37.7868L13.1909 37.7693L12.9512 37.9686L12.7434 37.9799L12.4379 37.8864L12.1914 37.6933L12.2607 37.1735L12.1005 36.9722L11.7109 36.7791L11.4122 36.1863L11.302 36.1155L10.6978 36.0107L10.4388 35.758L10.3287 35.7754L10.2378 35.8926L9.9845 35.9223L9.85161 36.0487L9.58242 36.0158L9.42 36.1976L9.01792 36.0281L8.90093 36.2439L8.73737 36.3692L8.54996 36.6435L8.16038 36.6373L8.05702 36.5551L8.0309 36.3497L7.84917 36.2089L7.74581 36.2028L7.48003 36.3784L7.36985 36.3671L6.98027 36.0446L6.69291 36.1946L6.62703 36.3158L6.38283 36.2685L6.17611 36.5438L6.01369 36.5551L5.87739 36.2798L5.63773 36.2737L5.3197 36.174L5.22884 36.2264L5.13116 36.5079L4.92558 36.5911L4.30656 36.1617L3.72956 35.986L3.55465 35.9922L3.41835 36.1093L3.25025 36.1268L3.06852 36.0795L2.99923 36.0045L2.84703 36.0384L2.61192 36.3209L2.46654 36.3322L2.3734 36.4093L2.38021 36.4914L2.15987 36.4853L1.83389 36.5798L1.73507 36.513L1.56243 36.5849L1.31595 36.5089L1.21827 36.3332H1.10015L1.02973 36.5911L0.879802 36.702L0.659453 36.5438L0.666268 36.3507L0.763948 36.2387L0.790072 36.0744L0.550415 35.4293L0.5436 35.0184L0.472044 34.7831L0.154015 34.4226V34.0394L0.0370263 33.948L0.0290756 33.8371L0.581082 33.271L0.32098 32.9393L0.469772 32.5458L0.735553 32.3496L0.807109 32.1966L0.625379 31.95L0.683305 31.8791L0.774171 31.9141L0.903654 32.1134L1.10469 32.0959L1.26711 32.2017L1.3966 32.3835L1.42954 32.818L1.72144 32.8591L1.9293 32.6978L2.11784 32.666L2.33819 32.7307L2.38362 32.6835L2.09172 32.2787L2.02698 32.0322L2.13033 31.0461L2.2212 30.9813L2.39044 30.9926L2.63009 31.1334L3.20141 30.9279L3.37632 30.9341L3.41494 31.0224L3.53193 31.0111L3.75228 30.6886L4.19298 30.4544L4.72454 30.2962L5.06528 30.3075L5.42874 30.2253L6.12273 29.9726L6.27152 29.9788L6.88145 30.3013L7.31647 30.6886L7.45277 30.6999L7.55045 30.6064L7.67993 30.6537L7.70605 30.8005L7.85485 30.9474L8.34779 30.9125L8.47159 30.9536L8.751 31.1067L8.95886 31.1241L8.97135 31.2474L9.04291 31.3059L9.55516 31.5586L10.5024 31.7877L10.7364 31.9223L10.8205 31.9932L10.775 32.1401L10.5024 32.2746L10.1197 32.5684L10.0742 32.9208L10.1322 33.044L10.2491 33.0615L10.2321 32.7821L10.2878 32.5982L10.3661 32.5458L10.6126 32.5571L11.1055 32.3044L11.0794 32.1103L11.2282 31.9172L11.3123 31.2155L11.5587 31.1221L12.4799 30.9577L12.6037 30.7636L12.5776 30.5109L12.7979 30.44L12.8888 30.5109L13.0671 30.4667L13.3488 30.3003L13.978 30.0712L14.0802 29.8308L13.8724 29.5144L13.9246 29.4025L14.0996 29.3501L14.6516 29.3326L15.0412 29.1159L15.3262 28.7995L15.7022 28.7646L16.1815 28.8026ZM14.6198 30.0157L14.6856 29.9007L14.6902 29.7343L14.6073 29.6357L14.5198 29.7343L14.5675 29.9798L14.6198 30.0157ZM19.7559 30.2212L19.7843 30.1236L19.5685 30.0671V30.1955L19.6253 30.2109L19.7559 30.2212ZM14.3528 30.6454L14.3744 30.9618L14.3085 31.4056L14.379 31.6429L14.5107 31.8093L14.6766 31.8966L15.0184 31.9439L15.115 31.9952L15.132 32.0825L15.0968 32.213L14.9787 32.2561L15.132 32.5212L14.8469 32.7708L14.781 32.9731L14.6413 33.0687L14.672 33.1396L14.8992 33.1632L15.0525 33.2854L15.1138 33.2176L15.0309 33.1303L15.0525 33.0389L15.1491 32.9321L15.2672 32.9557L15.2456 33.1735L15.3115 33.2053L15.7192 33.1539L15.9907 32.8807L16.0077 32.8098L15.9112 32.7225L15.9282 32.6116L15.8362 32.5602L15.3637 32.5756L15.3546 32.5006L15.5205 32.4328L15.5648 32.3496L15.5386 32.2387L15.4114 32.1123L15.6045 32.0569L15.8544 31.8987L15.8896 31.8309L15.8499 31.724L15.3898 31.9295L15.2888 31.9213L15.1093 31.2792L14.9423 31.2114L14.8549 31.1087L14.7845 30.78L14.605 30.4595L14.3597 30.3527L14.2415 30.4123L14.2631 30.4872L14.3528 30.6454ZM20.3352 32.6989L20.6464 32.5016L21.0587 32.551L21.1677 32.326L20.576 31.8822L20.4908 31.9736L20.5839 32.2058L20.4124 32.3322L20.1239 32.3958L20.0933 32.5088L20.3352 32.6989ZM10.3923 33.2423L10.323 33.3676L10.507 33.6593L10.5433 33.9295L10.6614 33.947L10.934 33.8514L10.9999 33.8874L11.0556 33.9881L10.9568 34.2377L10.9863 34.3568L11.2396 34.2027L11.5156 33.8463L11.8938 33.7004L12.071 33.4868L12.0222 33.3409L11.8938 33.3173L11.5451 33.4036L11.2623 33.3974L10.6444 33.2248L10.3923 33.2423Z" fill="#3C5F63" stroke="#E5E4E9" stroke-width="2" mask="url(#path-1-inside-1_233_859)"/>
<mask id="path-2-inside-2_233_859" fill="white">
<path d="M40.7276 0.229827H40.9548L41.1888 0.505126L41.3955 0.487663V0.582169L41.4614 0.623259L41.5579 0.669484L41.6681 0.645858L41.7203 0.728037L41.8237 0.705437L42.0906 0.969437L42.4018 1.07421L42.4597 1.16872L42.6869 1.11017L42.8232 1.21597L43.382 1.35054L43.4331 1.49744L43.9204 2.04906L44.1532 2.23705L44.3679 2.31306L44.5042 2.53597L44.8086 2.71779L44.971 2.74142L45.1596 2.6654L45.2698 2.69416L45.4617 2.60582L45.5719 2.63561L46.1432 2.87085L46.2659 2.98179L47.0712 3.36289L47.6618 3.51595L48.0445 3.75633L48.4137 3.85083L48.6795 4.04395L49.186 4.02033L49.6597 4.14359H50.0152L50.6581 4.27303L51.034 4.22577L52.7991 4.64797L53.0649 4.30179L53.1807 4.23913L53.3465 3.61868L53.5271 3.41015L53.7918 3.22216L54.4142 3.06397L54.5505 3.0989L54.6993 3.30434L55.0298 3.33927L55.2695 3.50979H55.458L56.1395 3.33927L56.5938 3.3516L56.7165 3.43994L57.3401 3.45124L57.4764 3.52212L57.5445 3.92377L57.6831 3.99156L57.9046 4.00286L59.0063 3.71626L59.1108 3.53342L59.2017 3.47897L59.8025 3.57142L59.9536 3.49849L60.2637 3.57142L60.9065 3.56834L61.0883 3.4687L61.1655 3.34851L61.1791 3.16977L61.2643 3.0989L61.7243 3.07013L61.8481 2.87085L61.9447 2.85852L62.516 2.94686L62.7113 2.8349L63.06 2.79072L63.1827 2.83798L63.3724 3.0989L63.4962 3.0876L63.7676 2.87907L64.2538 2.91399L64.3969 2.94995L64.448 3.16669L64.6706 3.1934L65 3.42864L64.9035 3.56321L64.5934 3.63306L64.2322 3.92479L64.0641 4.41478L63.9357 4.47334L63.6257 4.42711L62.4251 4.56681L62.2581 4.61304L62.1798 4.69522L61.8447 4.66029L61.329 4.86985L61.1348 4.89348L60.5805 4.82362L60.283 4.94073L60.0126 4.9058L59.8059 4.98695L59.4061 4.9284L59.1733 4.97565L59.0574 4.88218L58.8382 4.86985L58.8257 5.10406L58.5156 5.13898L58.335 5.22014L58.0511 5.18521L57.8319 5.39579L57.0834 5.82723L56.8767 6.03782L56.5927 6.15389L56.5541 6.42303L56.4382 6.49288L56.2701 6.53911L56.0895 6.46925H55.7147L55.4955 6.51548L55.3672 6.60896L54.8504 6.69114L54.7606 6.78462L54.3211 6.77229L54.0246 6.83084L53.7407 6.71476L53.4828 6.67881L53.4181 6.80721L53.4828 7.04142L53.4692 7.25098L53.0694 7.26331L52.9149 7.37938H52.7468L52.6435 7.46156L52.4765 7.81185L52.0631 8.07996L51.9211 8.23199L51.469 8.40662L51.3021 8.31314L51.1601 8.30184L51.0954 8.19604L51.1078 8.09126L50.992 8.06763L50.9409 8.14981L50.7989 8.20836L50.5786 8.26692L50.3593 8.23199L50.1787 8.28952L49.8823 8.10359L49.7528 8.25459L49.3916 8.26692L49.0827 8.38299L48.5148 8.19604L48.1536 8.27822L47.998 8.23199L47.8946 8.12618L47.5471 8.34807L47.2245 8.36039L47.095 8.18474L46.9655 8.14981L46.7077 8.27822L46.1273 8.19604L45.9978 8.25459L45.1335 8.32444L45.1721 8.4888L45.4299 8.75691L45.5208 8.97879L45.6752 9.16472L45.7275 9.43386L45.6105 9.51501L45.4049 9.46878L44.979 9.51501L44.7848 9.59719L44.5144 9.91255L44.2044 10.1334L43.8818 10.0872L43.3196 10.268L43.0481 10.2567L42.6869 10.3378L42.4154 10.2803L42.1065 10.3727L41.7964 10.3964L41.4477 10.3378L41.2285 11.2603L41.358 11.3651L41.7317 11.5171L41.7703 11.6219L41.6669 11.6568L41.5636 11.8088L41.3966 11.8437L41.241 11.9609L41.1774 12.0769L41.2796 12.4272L41.2024 12.6018L40.8935 12.7426L40.7844 13.3086L40.5652 13.3435L40.2937 13.2737L40.1393 13.3322L40.0098 13.437L39.8042 13.9968L39.6622 14.0903L39.4941 13.9157L39.6872 13.4134L39.6361 13.3548L39.1977 13.4247L39.0296 13.3897L38.9523 13.2264L38.6423 12.9696L38.5139 12.7837L38.3197 12.9583L38.1902 12.9347L37.9846 13.0169H37.4031L37.3134 12.947L36.9783 13.0169L36.9022 12.9788L36.8942 12.7683L36.825 12.6984L36.7727 12.4714L36.6523 12.4169L36.2889 12.3697L35.3484 12.5731L35.2098 12.4796L35.0974 12.4714L35.002 12.5649L34.7521 12.5423L34.6056 12.4015L34.3716 12.4169L33.5947 12.1981L33.43 12.2372L33.2494 12.0964L33.154 11.7451L33.0154 11.5736L32.1261 11.3548L31.757 11.3856L31.5037 11.2952L31.4628 11.1154L31.5184 10.8319L31.1493 10.7107L30.9937 10.5186L31.0266 9.99267L31.1163 9.92179L31.6082 10.0635L32.1113 9.66909L32.234 9.64855L32.4021 9.71018L32.8042 9.5787L33.2744 9.68964L33.5754 9.44721L34.0456 9.41639L34.5488 9.56842L35.387 9.30545L35.521 9.16369L35.5438 8.84011L35.8572 8.49599L35.9356 8.28438V8.09229L35.6778 7.92998L35.5324 8.04092L35.4097 8.02141L35.3314 7.82931L35.2087 7.71735L35.052 7.74816L35.0406 7.97005L34.9179 8.31417L34.8282 8.34499L34.7055 8.28849L34.7203 8.1344L34.4159 7.8704L34.1172 7.34446L33.9809 6.8935L33.9877 6.34188L34.1774 5.89503L34.2149 5.58583L34.4613 5.15028L34.6476 4.93867L34.7328 4.15592L34.6817 3.79742L34.5726 3.56834L34.6249 3.34543L34.9225 3.07527L34.9088 2.60069L35.0008 2.39524L35.4029 2.3069L35.7028 2.15898L35.9481 1.94326L36.3638 1.74911L36.8636 1.41526L36.9385 1.50257L37.0941 1.54982L37.2043 1.44402L37.8233 1.49744L37.9983 1.33821L38.0346 1.23035L38.0971 1.24782L38.3663 0.546216L38.7422 0.669484L38.891 0.892394L39.0932 0.985873L39.2613 0.933484L39.4362 0.786589L40.2733 0.746527L40.3971 0.693111L40.4482 0.582169L40.2154 0.206201L40.2665 0.0418434L40.4687 0.171275L40.7276 0.229827Z"/>
</mask>
<path d="M40.7276 0.229827H40.9548L41.1888 0.505126L41.3955 0.487663V0.582169L41.4614 0.623259L41.5579 0.669484L41.6681 0.645858L41.7203 0.728037L41.8237 0.705437L42.0906 0.969437L42.4018 1.07421L42.4597 1.16872L42.6869 1.11017L42.8232 1.21597L43.382 1.35054L43.4331 1.49744L43.9204 2.04906L44.1532 2.23705L44.3679 2.31306L44.5042 2.53597L44.8086 2.71779L44.971 2.74142L45.1596 2.6654L45.2698 2.69416L45.4617 2.60582L45.5719 2.63561L46.1432 2.87085L46.2659 2.98179L47.0712 3.36289L47.6618 3.51595L48.0445 3.75633L48.4137 3.85083L48.6795 4.04395L49.186 4.02033L49.6597 4.14359H50.0152L50.6581 4.27303L51.034 4.22577L52.7991 4.64797L53.0649 4.30179L53.1807 4.23913L53.3465 3.61868L53.5271 3.41015L53.7918 3.22216L54.4142 3.06397L54.5505 3.0989L54.6993 3.30434L55.0298 3.33927L55.2695 3.50979H55.458L56.1395 3.33927L56.5938 3.3516L56.7165 3.43994L57.3401 3.45124L57.4764 3.52212L57.5445 3.92377L57.6831 3.99156L57.9046 4.00286L59.0063 3.71626L59.1108 3.53342L59.2017 3.47897L59.8025 3.57142L59.9536 3.49849L60.2637 3.57142L60.9065 3.56834L61.0883 3.4687L61.1655 3.34851L61.1791 3.16977L61.2643 3.0989L61.7243 3.07013L61.8481 2.87085L61.9447 2.85852L62.516 2.94686L62.7113 2.8349L63.06 2.79072L63.1827 2.83798L63.3724 3.0989L63.4962 3.0876L63.7676 2.87907L64.2538 2.91399L64.3969 2.94995L64.448 3.16669L64.6706 3.1934L65 3.42864L64.9035 3.56321L64.5934 3.63306L64.2322 3.92479L64.0641 4.41478L63.9357 4.47334L63.6257 4.42711L62.4251 4.56681L62.2581 4.61304L62.1798 4.69522L61.8447 4.66029L61.329 4.86985L61.1348 4.89348L60.5805 4.82362L60.283 4.94073L60.0126 4.9058L59.8059 4.98695L59.4061 4.9284L59.1733 4.97565L59.0574 4.88218L58.8382 4.86985L58.8257 5.10406L58.5156 5.13898L58.335 5.22014L58.0511 5.18521L57.8319 5.39579L57.0834 5.82723L56.8767 6.03782L56.5927 6.15389L56.5541 6.42303L56.4382 6.49288L56.2701 6.53911L56.0895 6.46925H55.7147L55.4955 6.51548L55.3672 6.60896L54.8504 6.69114L54.7606 6.78462L54.3211 6.77229L54.0246 6.83084L53.7407 6.71476L53.4828 6.67881L53.4181 6.80721L53.4828 7.04142L53.4692 7.25098L53.0694 7.26331L52.9149 7.37938H52.7468L52.6435 7.46156L52.4765 7.81185L52.0631 8.07996L51.9211 8.23199L51.469 8.40662L51.3021 8.31314L51.1601 8.30184L51.0954 8.19604L51.1078 8.09126L50.992 8.06763L50.9409 8.14981L50.7989 8.20836L50.5786 8.26692L50.3593 8.23199L50.1787 8.28952L49.8823 8.10359L49.7528 8.25459L49.3916 8.26692L49.0827 8.38299L48.5148 8.19604L48.1536 8.27822L47.998 8.23199L47.8946 8.12618L47.5471 8.34807L47.2245 8.36039L47.095 8.18474L46.9655 8.14981L46.7077 8.27822L46.1273 8.19604L45.9978 8.25459L45.1335 8.32444L45.1721 8.4888L45.4299 8.75691L45.5208 8.97879L45.6752 9.16472L45.7275 9.43386L45.6105 9.51501L45.4049 9.46878L44.979 9.51501L44.7848 9.59719L44.5144 9.91255L44.2044 10.1334L43.8818 10.0872L43.3196 10.268L43.0481 10.2567L42.6869 10.3378L42.4154 10.2803L42.1065 10.3727L41.7964 10.3964L41.4477 10.3378L41.2285 11.2603L41.358 11.3651L41.7317 11.5171L41.7703 11.6219L41.6669 11.6568L41.5636 11.8088L41.3966 11.8437L41.241 11.9609L41.1774 12.0769L41.2796 12.4272L41.2024 12.6018L40.8935 12.7426L40.7844 13.3086L40.5652 13.3435L40.2937 13.2737L40.1393 13.3322L40.0098 13.437L39.8042 13.9968L39.6622 14.0903L39.4941 13.9157L39.6872 13.4134L39.6361 13.3548L39.1977 13.4247L39.0296 13.3897L38.9523 13.2264L38.6423 12.9696L38.5139 12.7837L38.3197 12.9583L38.1902 12.9347L37.9846 13.0169H37.4031L37.3134 12.947L36.9783 13.0169L36.9022 12.9788L36.8942 12.7683L36.825 12.6984L36.7727 12.4714L36.6523 12.4169L36.2889 12.3697L35.3484 12.5731L35.2098 12.4796L35.0974 12.4714L35.002 12.5649L34.7521 12.5423L34.6056 12.4015L34.3716 12.4169L33.5947 12.1981L33.43 12.2372L33.2494 12.0964L33.154 11.7451L33.0154 11.5736L32.1261 11.3548L31.757 11.3856L31.5037 11.2952L31.4628 11.1154L31.5184 10.8319L31.1493 10.7107L30.9937 10.5186L31.0266 9.99267L31.1163 9.92179L31.6082 10.0635L32.1113 9.66909L32.234 9.64855L32.4021 9.71018L32.8042 9.5787L33.2744 9.68964L33.5754 9.44721L34.0456 9.41639L34.5488 9.56842L35.387 9.30545L35.521 9.16369L35.5438 8.84011L35.8572 8.49599L35.9356 8.28438V8.09229L35.6778 7.92998L35.5324 8.04092L35.4097 8.02141L35.3314 7.82931L35.2087 7.71735L35.052 7.74816L35.0406 7.97005L34.9179 8.31417L34.8282 8.34499L34.7055 8.28849L34.7203 8.1344L34.4159 7.8704L34.1172 7.34446L33.9809 6.8935L33.9877 6.34188L34.1774 5.89503L34.2149 5.58583L34.4613 5.15028L34.6476 4.93867L34.7328 4.15592L34.6817 3.79742L34.5726 3.56834L34.6249 3.34543L34.9225 3.07527L34.9088 2.60069L35.0008 2.39524L35.4029 2.3069L35.7028 2.15898L35.9481 1.94326L36.3638 1.74911L36.8636 1.41526L36.9385 1.50257L37.0941 1.54982L37.2043 1.44402L37.8233 1.49744L37.9983 1.33821L38.0346 1.23035L38.0971 1.24782L38.3663 0.546216L38.7422 0.669484L38.891 0.892394L39.0932 0.985873L39.2613 0.933484L39.4362 0.786589L40.2733 0.746527L40.3971 0.693111L40.4482 0.582169L40.2154 0.206201L40.2665 0.0418434L40.4687 0.171275L40.7276 0.229827Z" fill="#3C5F63" stroke="#E5E4E9" stroke-width="2" mask="url(#path-2-inside-2_233_859)"/>
<mask id="path-3-inside-3_233_859" fill="white">
<path d="M24.5684 10.4181L25.3408 10.529L25.5077 10.6194L25.7201 10.9132L25.8769 10.9532L26.2687 10.8526L26.6038 11.0847L26.8048 11.0652L27.2853 11.2974L27.8225 11.2573L28.3927 11.51L29.1037 12.0051L29.6739 11.9445L29.775 11.6415L30.0873 11.51L30.3338 11.2059L30.4122 11.1864L30.5905 11.3477L30.8143 11.2162L30.904 11.3682L31.0607 11.3374L31.2391 11.398L31.5037 11.2953L31.757 11.3857L32.1261 11.3549L33.0155 11.5737L33.154 11.7452L33.2494 12.0966L33.43 12.2373L33.5947 12.1983L34.3716 12.4171L34.6056 12.4016L34.7521 12.5424L35.002 12.565L35.0974 12.4715L35.2099 12.4797L35.3484 12.5732L36.2889 12.3698L36.6523 12.4171L36.7727 12.4715L36.825 12.6985L36.8943 12.7684L36.9022 12.979L36.9976 13.0262L36.8591 13.2368L36.4104 13.659L36.4275 13.7134L36.8591 13.9168L36.9885 13.924L37.1271 13.8151L37.1964 13.8233L37.4633 14.0493L37.7666 13.9867L37.8699 14.0339H38.1982L38.3356 14.1274L38.3879 14.2835L38.3538 14.604L38.5605 15.0026L38.7422 15.1115H39.2L39.3124 15.1824L39.2511 15.5881L39.3204 15.7371L39.3635 16.2517L39.2602 16.4859L39.1307 16.4942L38.9581 16.2836V16.1346L39.0535 15.9549L38.9921 15.846L38.7252 15.6426L38.2845 15.5573L38.0426 15.4084L37.8268 15.471L37.8177 15.5573L38.1198 16.1819L38.3583 16.2723L38.4049 16.4109L38.5582 16.5496L38.9274 16.7725L39.2193 16.8136L39.6339 16.7582L39.8803 16.8003L40.2029 16.9811L40.4335 16.8414L41.2161 16.7725L41.6624 16.8835L41.8612 17.0365H42.0304L42.3382 16.6893L42.7528 16.5917L43.4286 16.564L43.7205 16.4808L43.9352 16.2723L44.2589 16.1192L44.4429 16.0781L44.6882 16.1192L44.6269 16.3832L44.4883 16.5784L44.5349 17.0776L44.2737 17.6755L44.243 18.1336L44.151 18.3288L43.7512 18.5507L43.6433 18.6904L43.2753 18.7037L42.9981 18.9256L42.353 19.0099L41.8919 19.2872L41.2013 19.4259L41.14 19.6344L41.3853 19.9683L41.4625 20.3432L41.0786 20.2877L40.6175 20.3987L40.1098 20.4264L39.8803 20.3853L39.7565 20.5795L39.5725 20.6216L39.434 20.7325L39.4033 20.8578L38.9422 20.9267L38.8661 21.0653L38.8808 21.2461L38.9887 21.4136L39.4805 21.7464V21.8995L39.1114 22.1635L38.8808 22.4696L38.8195 22.6493L38.6468 22.4418L38.3379 22.4347L38.1096 22.3288L37.7643 22.2549L37.72 21.6622L37.6757 21.5697L37.5019 21.4896L37.494 21.2369L37.2668 21.1434L37.1487 21.1629L37.1407 21.3561L37.001 21.4691L36.9715 21.6622L36.3457 22.222L36.1764 22.8743H36.0663L35.654 22.7007L35.4632 22.4819L35.1906 22.2949V22.1614L35.4847 21.8358L35.9856 21.5697L36.0742 21.4434L35.9856 21.1629L35.8232 20.9965L35.7426 21.0099L35.353 21.1362L35.3303 21.2102L35.4847 21.39V21.503L35.4109 21.5697L34.7419 21.4824L34.3512 21.4896L34.0638 21.4033L33.8798 21.5358L33.8651 21.7423L33.8071 21.8091L33.5788 21.8954V21.9816L33.4164 22.1285L33.0927 22.0823L32.5475 22.182L32.4373 22.3021L32.3419 22.6216L32.3567 22.9873L32.4669 23.1804L32.4453 23.354L32.2976 23.5862L31.9512 23.6396L31.6502 23.9283L30.528 23.8389L30.3815 23.9724L30.3781 24.0371L30.2055 24.1542L30.1839 24.2487L30.0669 24.3186L29.9181 24.3135L29.7171 24.2015L29.3809 23.7362L29.2559 23.6971L29.1719 23.7023L29.1264 23.7844L28.4063 23.9724L28.1337 23.9611L27.1535 23.6848L27.082 23.7208L26.9979 23.6612L27.1501 23.315L27.1013 23.089L26.6606 22.6668L26.4527 22.6606L26.447 22.4264L26.3323 22.2487L25.953 22.0535L25.5895 22.1275L25.3249 21.8245L25.2363 21.7895L25.1477 21.8183L25.0523 21.9734L24.7978 22.1213L24.4673 22.2919L24.13 22.3556L24.0391 22.4614L23.896 22.485L23.6495 22.374L23.6268 22.26L23.8801 22.22L24.1754 21.9334L24.1709 21.73L23.8926 21.4721L23.854 21.3519L23.9119 21.1619L23.8733 20.8589L23.7086 20.7551L23.4121 20.7787L23.2384 20.8763L23.0055 21.128L22.8022 21.0931L22.3252 20.8507L21.8777 20.9092L21.4813 20.7274L21.3063 20.3576L21.4392 20.148L21.6369 19.9826L21.7277 19.7125L21.7186 19.6149L21.471 19.2934L21.4211 19.1393L21.5403 19.0489L21.4881 18.8845L21.2802 18.9616L21.0985 18.9492L21.0406 18.6483L20.7418 18.3041L20.7157 18.0576L20.6317 18.0227L20.5147 18.0987L20.5476 18.3452H20.4761L20.3205 18.0812L20.1319 18.0514L20.0535 18.1511L20.1387 18.3627L20.0535 18.4685L19.9241 18.4151L19.8866 18.2476L19.9411 18.1131L20.216 17.846L20.1978 17.4104L20.2671 17.3704L20.275 17.0889L20.1194 17.0838L19.9763 17.2245L19.7923 17.3016L19.7287 17.5019L19.6197 17.5882L19.3016 17.6878L19.3209 17.8049H19.5867L19.7105 17.9107L19.6844 18.2702L19.5504 18.4993L19.6208 18.7171L19.589 18.8095L19.4754 18.826L19.3925 19.0663L19.2233 19.0253L19.2108 19.243L19.087 19.3838L18.8382 19.5389L18.5588 19.4454L18.326 19.5337L18.059 19.4629L17.8126 19.6098L17.8194 19.7443L17.8773 19.7608L17.8398 19.8922L17.8773 20.0494L18.0238 20.1963L17.9943 20.3494L17.8069 20.5189L18.0727 20.8239L17.7933 21.2646L17.6763 21.3057L17.4684 21.2174L17.398 20.8537L17.1833 20.7243L16.8721 20.8476L16.7813 21.1239L16.645 21.1116L16.5416 21.0181L16.5155 20.6216L16.3599 20.5456L16.2815 20.5394L16.1781 20.6216L16.1089 20.5466L15.7647 20.5158L15.441 20.7038L15.4012 20.8917L15.1877 20.9626L15.0582 20.9472L14.8311 20.6832L14.6232 20.5774L14.2984 20.5486L14.0655 20.7336L13.7532 20.7007L13.6623 20.525L13.4033 20.3668L13.1637 20.0443L13.0785 20.0258L12.8059 20.0319L12.7309 20.0823L12.6548 20.2877L12.5208 20.4367L12.4527 20.3514L12.4561 19.9734L12.3061 19.8614V19.658L12.4231 19.354L12.3913 18.6996L11.853 17.92L11.5667 17.8604L11.3203 17.9374L11.2124 17.9169L11.2101 17.9723L10.8341 18.0196L10.3798 18.4829L10.1197 18.5178L9.88004 18.412L9.76987 18.1295L9.28942 17.8018L9.15766 17.808L8.96912 17.5265L8.81351 17.5738L8.46254 17.3272L8.28195 17.4217L8.15814 17.5738L8.01503 17.5789L7.697 17.4854L7.52095 17.3478L7.52776 16.9636L7.80718 16.7284L7.85942 16.4233L8.35237 16.3935L8.59884 16.2291L8.90437 16.1706L9.09178 16.0535L9.39732 15.6426L9.66991 15.5542L9.88345 15.3436L10.1299 15.3488L10.2651 15.1146L10.2276 14.8989L10.2787 14.6503L10.4161 14.5424L10.7603 14.4078L10.9182 14.2322L10.9613 14.0966L11.3112 13.8726L11.4191 13.6241L11.5838 13.4741L11.9347 13.3683L12.2198 13.4094L12.2812 13.246L12.3629 13.2337L12.7264 13.3806L12.9138 13.3395L13.0796 13.0909L13.0921 12.8906L12.9524 12.5239L13.1217 12.037L13.8293 12.2774L14.0689 12.2712L14.2961 12.1952L14.3813 12.037L14.8413 11.7401L15.0684 11.6754L15.1525 11.511L15.6398 11.2008L15.9635 11.1772L16.2576 11.0097L16.344 10.9193L16.4019 10.5988L16.6529 10.4889L17.2004 10.5187L17.3685 10.5495L17.6933 10.7314L18.1624 10.7612L18.4305 10.5999L18.8553 10.5896L19.2017 10.4478L19.3698 10.4581L19.8957 10.6502L20.2194 10.944L21.4608 11.1967L22.232 11.5603L22.5342 11.6415L22.9362 11.9137L23.361 11.924L23.4621 12.036L23.8313 11.9137L23.9653 11.7319L24.0096 11.5603L23.9653 11.1967L24.0096 11.0046L24.2561 10.6502L24.2447 10.4889L24.3674 10.3975L24.5684 10.4181Z"/>
</mask>
<path d="M24.5684 10.4181L25.3408 10.529L25.5077 10.6194L25.7201 10.9132L25.8769 10.9532L26.2687 10.8526L26.6038 11.0847L26.8048 11.0652L27.2853 11.2974L27.8225 11.2573L28.3927 11.51L29.1037 12.0051L29.6739 11.9445L29.775 11.6415L30.0873 11.51L30.3338 11.2059L30.4122 11.1864L30.5905 11.3477L30.8143 11.2162L30.904 11.3682L31.0607 11.3374L31.2391 11.398L31.5037 11.2953L31.757 11.3857L32.1261 11.3549L33.0155 11.5737L33.154 11.7452L33.2494 12.0966L33.43 12.2373L33.5947 12.1983L34.3716 12.4171L34.6056 12.4016L34.7521 12.5424L35.002 12.565L35.0974 12.4715L35.2099 12.4797L35.3484 12.5732L36.2889 12.3698L36.6523 12.4171L36.7727 12.4715L36.825 12.6985L36.8943 12.7684L36.9022 12.979L36.9976 13.0262L36.8591 13.2368L36.4104 13.659L36.4275 13.7134L36.8591 13.9168L36.9885 13.924L37.1271 13.8151L37.1964 13.8233L37.4633 14.0493L37.7666 13.9867L37.8699 14.0339H38.1982L38.3356 14.1274L38.3879 14.2835L38.3538 14.604L38.5605 15.0026L38.7422 15.1115H39.2L39.3124 15.1824L39.2511 15.5881L39.3204 15.7371L39.3635 16.2517L39.2602 16.4859L39.1307 16.4942L38.9581 16.2836V16.1346L39.0535 15.9549L38.9921 15.846L38.7252 15.6426L38.2845 15.5573L38.0426 15.4084L37.8268 15.471L37.8177 15.5573L38.1198 16.1819L38.3583 16.2723L38.4049 16.4109L38.5582 16.5496L38.9274 16.7725L39.2193 16.8136L39.6339 16.7582L39.8803 16.8003L40.2029 16.9811L40.4335 16.8414L41.2161 16.7725L41.6624 16.8835L41.8612 17.0365H42.0304L42.3382 16.6893L42.7528 16.5917L43.4286 16.564L43.7205 16.4808L43.9352 16.2723L44.2589 16.1192L44.4429 16.0781L44.6882 16.1192L44.6269 16.3832L44.4883 16.5784L44.5349 17.0776L44.2737 17.6755L44.243 18.1336L44.151 18.3288L43.7512 18.5507L43.6433 18.6904L43.2753 18.7037L42.9981 18.9256L42.353 19.0099L41.8919 19.2872L41.2013 19.4259L41.14 19.6344L41.3853 19.9683L41.4625 20.3432L41.0786 20.2877L40.6175 20.3987L40.1098 20.4264L39.8803 20.3853L39.7565 20.5795L39.5725 20.6216L39.434 20.7325L39.4033 20.8578L38.9422 20.9267L38.8661 21.0653L38.8808 21.2461L38.9887 21.4136L39.4805 21.7464V21.8995L39.1114 22.1635L38.8808 22.4696L38.8195 22.6493L38.6468 22.4418L38.3379 22.4347L38.1096 22.3288L37.7643 22.2549L37.72 21.6622L37.6757 21.5697L37.5019 21.4896L37.494 21.2369L37.2668 21.1434L37.1487 21.1629L37.1407 21.3561L37.001 21.4691L36.9715 21.6622L36.3457 22.222L36.1764 22.8743H36.0663L35.654 22.7007L35.4632 22.4819L35.1906 22.2949V22.1614L35.4847 21.8358L35.9856 21.5697L36.0742 21.4434L35.9856 21.1629L35.8232 20.9965L35.7426 21.0099L35.353 21.1362L35.3303 21.2102L35.4847 21.39V21.503L35.4109 21.5697L34.7419 21.4824L34.3512 21.4896L34.0638 21.4033L33.8798 21.5358L33.8651 21.7423L33.8071 21.8091L33.5788 21.8954V21.9816L33.4164 22.1285L33.0927 22.0823L32.5475 22.182L32.4373 22.3021L32.3419 22.6216L32.3567 22.9873L32.4669 23.1804L32.4453 23.354L32.2976 23.5862L31.9512 23.6396L31.6502 23.9283L30.528 23.8389L30.3815 23.9724L30.3781 24.0371L30.2055 24.1542L30.1839 24.2487L30.0669 24.3186L29.9181 24.3135L29.7171 24.2015L29.3809 23.7362L29.2559 23.6971L29.1719 23.7023L29.1264 23.7844L28.4063 23.9724L28.1337 23.9611L27.1535 23.6848L27.082 23.7208L26.9979 23.6612L27.1501 23.315L27.1013 23.089L26.6606 22.6668L26.4527 22.6606L26.447 22.4264L26.3323 22.2487L25.953 22.0535L25.5895 22.1275L25.3249 21.8245L25.2363 21.7895L25.1477 21.8183L25.0523 21.9734L24.7978 22.1213L24.4673 22.2919L24.13 22.3556L24.0391 22.4614L23.896 22.485L23.6495 22.374L23.6268 22.26L23.8801 22.22L24.1754 21.9334L24.1709 21.73L23.8926 21.4721L23.854 21.3519L23.9119 21.1619L23.8733 20.8589L23.7086 20.7551L23.4121 20.7787L23.2384 20.8763L23.0055 21.128L22.8022 21.0931L22.3252 20.8507L21.8777 20.9092L21.4813 20.7274L21.3063 20.3576L21.4392 20.148L21.6369 19.9826L21.7277 19.7125L21.7186 19.6149L21.471 19.2934L21.4211 19.1393L21.5403 19.0489L21.4881 18.8845L21.2802 18.9616L21.0985 18.9492L21.0406 18.6483L20.7418 18.3041L20.7157 18.0576L20.6317 18.0227L20.5147 18.0987L20.5476 18.3452H20.4761L20.3205 18.0812L20.1319 18.0514L20.0535 18.1511L20.1387 18.3627L20.0535 18.4685L19.9241 18.4151L19.8866 18.2476L19.9411 18.1131L20.216 17.846L20.1978 17.4104L20.2671 17.3704L20.275 17.0889L20.1194 17.0838L19.9763 17.2245L19.7923 17.3016L19.7287 17.5019L19.6197 17.5882L19.3016 17.6878L19.3209 17.8049H19.5867L19.7105 17.9107L19.6844 18.2702L19.5504 18.4993L19.6208 18.7171L19.589 18.8095L19.4754 18.826L19.3925 19.0663L19.2233 19.0253L19.2108 19.243L19.087 19.3838L18.8382 19.5389L18.5588 19.4454L18.326 19.5337L18.059 19.4629L17.8126 19.6098L17.8194 19.7443L17.8773 19.7608L17.8398 19.8922L17.8773 20.0494L18.0238 20.1963L17.9943 20.3494L17.8069 20.5189L18.0727 20.8239L17.7933 21.2646L17.6763 21.3057L17.4684 21.2174L17.398 20.8537L17.1833 20.7243L16.8721 20.8476L16.7813 21.1239L16.645 21.1116L16.5416 21.0181L16.5155 20.6216L16.3599 20.5456L16.2815 20.5394L16.1781 20.6216L16.1089 20.5466L15.7647 20.5158L15.441 20.7038L15.4012 20.8917L15.1877 20.9626L15.0582 20.9472L14.8311 20.6832L14.6232 20.5774L14.2984 20.5486L14.0655 20.7336L13.7532 20.7007L13.6623 20.525L13.4033 20.3668L13.1637 20.0443L13.0785 20.0258L12.8059 20.0319L12.7309 20.0823L12.6548 20.2877L12.5208 20.4367L12.4527 20.3514L12.4561 19.9734L12.3061 19.8614V19.658L12.4231 19.354L12.3913 18.6996L11.853 17.92L11.5667 17.8604L11.3203 17.9374L11.2124 17.9169L11.2101 17.9723L10.8341 18.0196L10.3798 18.4829L10.1197 18.5178L9.88004 18.412L9.76987 18.1295L9.28942 17.8018L9.15766 17.808L8.96912 17.5265L8.81351 17.5738L8.46254 17.3272L8.28195 17.4217L8.15814 17.5738L8.01503 17.5789L7.697 17.4854L7.52095 17.3478L7.52776 16.9636L7.80718 16.7284L7.85942 16.4233L8.35237 16.3935L8.59884 16.2291L8.90437 16.1706L9.09178 16.0535L9.39732 15.6426L9.66991 15.5542L9.88345 15.3436L10.1299 15.3488L10.2651 15.1146L10.2276 14.8989L10.2787 14.6503L10.4161 14.5424L10.7603 14.4078L10.9182 14.2322L10.9613 14.0966L11.3112 13.8726L11.4191 13.6241L11.5838 13.4741L11.9347 13.3683L12.2198 13.4094L12.2812 13.246L12.3629 13.2337L12.7264 13.3806L12.9138 13.3395L13.0796 13.0909L13.0921 12.8906L12.9524 12.5239L13.1217 12.037L13.8293 12.2774L14.0689 12.2712L14.2961 12.1952L14.3813 12.037L14.8413 11.7401L15.0684 11.6754L15.1525 11.511L15.6398 11.2008L15.9635 11.1772L16.2576 11.0097L16.344 10.9193L16.4019 10.5988L16.6529 10.4889L17.2004 10.5187L17.3685 10.5495L17.6933 10.7314L18.1624 10.7612L18.4305 10.5999L18.8553 10.5896L19.2017 10.4478L19.3698 10.4581L19.8957 10.6502L20.2194 10.944L21.4608 11.1967L22.232 11.5603L22.5342 11.6415L22.9362 11.9137L23.361 11.924L23.4621 12.036L23.8313 11.9137L23.9653 11.7319L24.0096 11.5603L23.9653 11.1967L24.0096 11.0046L24.2561 10.6502L24.2447 10.4889L24.3674 10.3975L24.5684 10.4181Z" fill="#3C5F63" stroke="#E5E4E9" stroke-width="2" mask="url(#path-3-inside-3_233_859)"/>
<mask id="path-4-inside-4_233_859" fill="white">
<path d="M51.1045 8.1962L51.1692 8.30201L51.3112 8.31331L51.4782 8.40678L51.9302 8.23215L52.0665 8.08629L52.2642 8.27941L52.7662 8.43041L52.9252 8.59785L53.1274 8.5732L53.1455 8.79713L53.3386 8.82898L53.3648 8.95636L54.0519 8.87623L54.1485 8.58963L54.2371 8.55779L54.8186 8.62148L54.897 8.69338L54.7913 9.23474L54.8709 9.2748L54.8356 9.44943L54.8799 9.72884L55.0742 10.1829L55.0469 10.3976L55.4967 10.6605V10.9389L55.9805 11.1064L56.0248 11.17V11.3056L55.8488 11.6323L55.8136 11.8152L55.7341 11.9107L55.5751 11.9189L55.3468 12.2774L55.3558 12.3647L55.6989 12.4438L56.0691 12.3093L56.3508 12.3164L56.4996 12.1654H56.7109L56.9471 12.2178L57.4673 12.4479L57.5991 12.4007L58.1011 12.4644L58.1624 12.5917L58.3215 12.6791L58.6293 12.7191L58.7792 12.6318L58.8587 12.6472L58.9734 12.7427L59.3164 12.8465L59.4573 12.9975L59.8628 13.1012L59.9332 13.2451L60.0388 13.2769L60.2058 13.1649L60.258 13.1968L60.3114 13.3878L60.2671 13.4998L60.0468 13.6272L60.0388 13.8501L59.9763 13.961L59.8537 14.0247L59.2983 14.0412L59.0961 13.9929L59.0086 14.0412L58.8496 14.3442L58.92 14.638L58.8667 14.7982L58.9019 14.9575L59.0609 14.901L59.7128 14.9893L60.3023 14.9328L60.4 14.7982L60.5761 14.7017L60.7782 14.7654L60.9009 14.8691L60.9804 15.0047L61.0077 15.2441L60.9361 15.355L60.7339 15.4752L60.6544 15.6416L60.6817 15.7299L60.9543 15.8727L60.9895 15.96L60.8044 16.4583L60.7953 16.6411L60.9543 16.6658L61.1394 16.5065L61.2189 16.5219L61.4824 16.8404L62.1696 16.8486L62.9704 16.7294L63.0851 16.7613L63.235 16.9123L63.4463 16.9595L63.8779 16.6976L64.9932 16.825L65.5294 16.7294L65.777 16.562L65.9257 16.3073H65.9962L66.1552 16.7449L65.9348 17.318L65.8735 17.43L65.4158 17.4136L65.5566 17.4536L65.6793 17.6293L65.9257 18.4655L66.2256 18.6083L66.3664 18.6401L66.5607 18.5928L66.7015 18.6483L66.8151 18.8312L66.6572 19.1424L66.6481 19.4054L66.5686 19.5482L66.3755 19.7321L66.137 19.8594L66.1552 20.0187L66.2347 20.0505L67.0797 19.6838L68.2246 19.4763L68.3746 19.5882L68.6381 19.6684L68.4972 19.8194V20.1614L68.7971 20.409L69.3252 20.3525L69.4218 20.297L69.9772 20.3689L70.2589 20.3371L70.8756 20.5682L71.1573 20.6155L71.5355 20.3843L71.941 20.2488L72.0205 20.1614L72.5135 20.0977L72.5657 20.1614L72.7066 20.1697L72.6009 20.4326L72.6543 20.6555L72.7509 20.7911L72.9712 20.9504L73.1813 20.9956L73.0859 21.3469L72.9826 21.3746L72.7145 21.6345L72.1648 21.6992L71.8013 22.0094H71.6912L71.4049 21.7814L71.0483 21.7403L70.7405 21.7752L70.5815 21.7403L70.3929 21.6109H70.2441L70.2044 21.7105L69.9454 21.7865L69.9568 21.8389L69.5626 21.9632L69.4059 22.1563L69.0992 22.108L68.9073 22.1913L68.7971 22.3094L68.3291 22.2858L67.7976 22.4265L67.6158 22.3556L67.1127 22.409L66.9571 22.3679L66.9718 22.2323L66.5539 22.1913L66.463 22.0803L66.1461 22.0331L65.4453 22.3556L65.0364 22.1389L64.8092 22.145L64.523 22.2734L64.3867 22.2385L64.2572 22.1563L64.0562 22.1276L63.9721 21.9047L63.6802 21.7752L63.2452 21.7865L63.1805 21.7218L63.0249 21.728L62.7 22.0392L62.491 22.1553L62.2945 22.1255L62.3241 22.1974L62.0583 22.1687L61.947 22.3207L61.9277 22.6176L61.6551 22.6227L61.604 22.7634L61.2859 22.8641L61.136 23.3099L61.1758 23.8492L60.9679 23.9489L61.002 24.1214L60.8839 24.2426L60.8441 24.407L60.325 24.7419L60.3387 25.0172L60.5397 25.2812L60.2932 25.7743L60.3296 25.9684L60.208 26.1441L60.0138 26.2088L59.8843 26.4553L59.7026 26.5313L59.5334 26.7604L59.3585 27.1415L59.3846 27.4702L59.2812 27.6284L59.0666 27.7753L59.0541 27.8811L58.6315 28.104L58.56 28.292L58.2488 28.4153H57.9046L57.724 28.744L57.5741 28.632L57.5548 28.2622L57.3344 28.1276L56.9903 28.0742L56.8279 28.0917L56.5984 28.3269L56.2475 28.5498L55.5024 28.4204L55.1707 28.6556L55.0867 28.6207L54.9504 28.4266L54.7357 28.3793L54.6323 28.4389L54.5028 28.7204L54.3666 28.8673L54.379 29.1313L54.2836 29.2104L54.1064 29.0902L53.6782 29.0953L53.601 28.9844L53.5556 29.0254L53.4647 28.9371L53.1399 29.1426L52.8162 29.1539L52.5686 29.3213L52.4777 29.3007L52.3811 28.7728L52.2505 28.5673V28.4677L52.3607 28.1862L52.3289 28.0742L52.5947 27.7989L52.6787 27.5288L52.3312 27.2411L52.1279 27.1641L52.0279 27.0008L51.9302 26.6546L51.8916 25.9735L51.8076 25.7917L51.5475 25.6746L51.2169 25.804L50.7433 26.1091L50.2242 26.6546L49.9914 26.7676L49.737 26.8066L49.5552 26.9248L49.2576 27.1826L49.2122 27.3582L48.9885 27.4024L48.8204 27.5966L48.5478 27.7548L48.0934 27.649H47.8595L47.4574 27.7845L47.2109 27.7609L46.9962 27.6202L46.718 27.6726L46.5294 27.6315L45.9615 27.162L45.6435 27.0326L45.773 27.086L45.4936 27.0213L45.3686 27.1199L45.0972 27.0151H44.9722L44.8177 27.1148L44.1328 27.0614L44.0079 26.9022L43.7864 26.8888L43.699 26.8292L43.5581 26.8621L43.4264 26.7357L43.3298 26.782L43.2719 26.7553L43.2197 26.5426L43.3741 26.2098L43.3151 26.103L43.1901 25.9961L43.0436 25.9828L42.8448 25.8503L42.5427 25.7835L42.3224 25.8164L42.0713 25.5441L41.8362 25.537L41.659 25.3438L41.4012 25.2647L41.0707 24.6648L40.8867 24.6987L40.7981 24.6515L40.6584 24.292L40.6073 24.2457H40.438L40.2756 24.1389L40.2313 23.8194L39.9962 23.5667L39.7895 23.5L39.5612 23.2606L39.3408 23.2339L39.208 22.8672L38.8627 22.7141L38.8286 22.6494L38.9819 22.3299L39.2432 22.0526L39.4896 21.8995V21.7465L38.9978 21.4136L38.8899 21.2462L38.8752 21.0654L38.9513 20.9267L39.4124 20.8579L39.4431 20.7326L39.5816 20.6216L39.7656 20.5795L39.8883 20.3854L40.1189 20.4265L40.6266 20.3987L41.0866 20.2878L41.4716 20.3433L41.3944 19.9683L41.1479 19.6345L41.2104 19.4259L41.901 19.2873L42.3621 19.0099L43.0073 18.9257L43.2844 18.7038L43.6524 18.6904L43.7603 18.5507L44.1601 18.3288L44.2521 18.1337L44.2828 17.6755L44.544 17.0777L44.4974 16.5784L44.636 16.3833L44.6974 16.1193L44.452 16.0782L44.2669 16.1193L43.9443 16.2723L43.7296 16.4809L43.4377 16.5641L42.7619 16.5918L42.3473 16.6894L42.0395 17.0366H41.8703L41.6704 16.8835L41.2252 16.7726L40.4414 16.8414L40.2109 16.9811L39.8883 16.8003L39.643 16.7582L39.2284 16.8137L38.9365 16.7726L38.5674 16.5497L38.414 16.411L38.3675 16.2723L38.1289 16.1819L37.8268 15.5574L37.8359 15.4711L38.0517 15.4084L38.2936 15.5574L38.7332 15.6426L39.0012 15.846L39.0614 15.9549L38.9672 16.1347V16.2836L39.1398 16.4942L39.2693 16.486L39.3726 16.2518L39.3295 15.7371L39.2602 15.5882L39.3204 15.1824L39.2091 15.1115H38.7514L38.5696 15.0027L38.3618 14.6041L38.397 14.2836L38.3447 14.1275L38.2073 14.034H37.879L37.7746 13.9867L37.4724 14.0494L37.2044 13.8234L37.1362 13.8152L36.9977 13.9241L36.8682 13.9169L36.5058 13.7679L36.4195 13.659L36.8682 13.2368L36.9874 13.017L37.3225 12.9472L37.4122 13.017H37.9926L38.1993 12.9348L38.3288 12.9585L38.5219 12.7838L38.6514 12.9698L38.9615 13.2266L39.0387 13.3899L39.2057 13.4248L39.6452 13.355L39.6964 13.4135L39.5033 13.9158L39.6702 14.0905L39.8122 13.997L40.0189 13.4372L40.1484 13.3324L40.3029 13.2738L40.5743 13.3437L40.7936 13.3088L40.9015 12.7427L41.2115 12.602L41.2888 12.4274L41.1854 12.0771L41.2501 11.961L41.4046 11.8439L41.5727 11.809L41.6761 11.657L41.7794 11.622L41.7408 11.5173L41.366 11.3652L41.2377 11.2604L41.4569 10.338L41.8056 10.3965L42.1145 10.3729L42.4246 10.2805L42.696 10.338L43.0572 10.2568L43.3276 10.2681L43.8909 10.0873L44.2135 10.1336L44.5224 9.91271L44.7939 9.59735L44.987 9.51517L45.4129 9.46895L45.6196 9.51517L45.7355 9.43402L45.6844 9.16488L45.5299 8.97895L45.439 8.75707L45.1812 8.48896L45.1426 8.32461L46.0069 8.25475L46.1364 8.1962L46.7168 8.27838L46.9747 8.14998L47.1041 8.1849L47.2325 8.36056L47.5551 8.34823L47.9038 8.12635L48.0071 8.23215L48.1616 8.27838L48.5228 8.1962L49.0907 8.38316L49.4008 8.26708L49.762 8.25475L49.8914 8.10375L50.1879 8.28968L50.3685 8.23215L50.5877 8.26708L50.8069 8.20853L50.9489 8.14998L51.0011 8.0678L51.117 8.09142L51.1045 8.1962Z"/>
</mask>
<path d="M51.1045 8.1962L51.1692 8.30201L51.3112 8.31331L51.4782 8.40678L51.9302 8.23215L52.0665 8.08629L52.2642 8.27941L52.7662 8.43041L52.9252 8.59785L53.1274 8.5732L53.1455 8.79713L53.3386 8.82898L53.3648 8.95636L54.0519 8.87623L54.1485 8.58963L54.2371 8.55779L54.8186 8.62148L54.897 8.69338L54.7913 9.23474L54.8709 9.2748L54.8356 9.44943L54.8799 9.72884L55.0742 10.1829L55.0469 10.3976L55.4967 10.6605V10.9389L55.9805 11.1064L56.0248 11.17V11.3056L55.8488 11.6323L55.8136 11.8152L55.7341 11.9107L55.5751 11.9189L55.3468 12.2774L55.3558 12.3647L55.6989 12.4438L56.0691 12.3093L56.3508 12.3164L56.4996 12.1654H56.7109L56.9471 12.2178L57.4673 12.4479L57.5991 12.4007L58.1011 12.4644L58.1624 12.5917L58.3215 12.6791L58.6293 12.7191L58.7792 12.6318L58.8587 12.6472L58.9734 12.7427L59.3164 12.8465L59.4573 12.9975L59.8628 13.1012L59.9332 13.2451L60.0388 13.2769L60.2058 13.1649L60.258 13.1968L60.3114 13.3878L60.2671 13.4998L60.0468 13.6272L60.0388 13.8501L59.9763 13.961L59.8537 14.0247L59.2983 14.0412L59.0961 13.9929L59.0086 14.0412L58.8496 14.3442L58.92 14.638L58.8667 14.7982L58.9019 14.9575L59.0609 14.901L59.7128 14.9893L60.3023 14.9328L60.4 14.7982L60.5761 14.7017L60.7782 14.7654L60.9009 14.8691L60.9804 15.0047L61.0077 15.2441L60.9361 15.355L60.7339 15.4752L60.6544 15.6416L60.6817 15.7299L60.9543 15.8727L60.9895 15.96L60.8044 16.4583L60.7953 16.6411L60.9543 16.6658L61.1394 16.5065L61.2189 16.5219L61.4824 16.8404L62.1696 16.8486L62.9704 16.7294L63.0851 16.7613L63.235 16.9123L63.4463 16.9595L63.8779 16.6976L64.9932 16.825L65.5294 16.7294L65.777 16.562L65.9257 16.3073H65.9962L66.1552 16.7449L65.9348 17.318L65.8735 17.43L65.4158 17.4136L65.5566 17.4536L65.6793 17.6293L65.9257 18.4655L66.2256 18.6083L66.3664 18.6401L66.5607 18.5928L66.7015 18.6483L66.8151 18.8312L66.6572 19.1424L66.6481 19.4054L66.5686 19.5482L66.3755 19.7321L66.137 19.8594L66.1552 20.0187L66.2347 20.0505L67.0797 19.6838L68.2246 19.4763L68.3746 19.5882L68.6381 19.6684L68.4972 19.8194V20.1614L68.7971 20.409L69.3252 20.3525L69.4218 20.297L69.9772 20.3689L70.2589 20.3371L70.8756 20.5682L71.1573 20.6155L71.5355 20.3843L71.941 20.2488L72.0205 20.1614L72.5135 20.0977L72.5657 20.1614L72.7066 20.1697L72.6009 20.4326L72.6543 20.6555L72.7509 20.7911L72.9712 20.9504L73.1813 20.9956L73.0859 21.3469L72.9826 21.3746L72.7145 21.6345L72.1648 21.6992L71.8013 22.0094H71.6912L71.4049 21.7814L71.0483 21.7403L70.7405 21.7752L70.5815 21.7403L70.3929 21.6109H70.2441L70.2044 21.7105L69.9454 21.7865L69.9568 21.8389L69.5626 21.9632L69.4059 22.1563L69.0992 22.108L68.9073 22.1913L68.7971 22.3094L68.3291 22.2858L67.7976 22.4265L67.6158 22.3556L67.1127 22.409L66.9571 22.3679L66.9718 22.2323L66.5539 22.1913L66.463 22.0803L66.1461 22.0331L65.4453 22.3556L65.0364 22.1389L64.8092 22.145L64.523 22.2734L64.3867 22.2385L64.2572 22.1563L64.0562 22.1276L63.9721 21.9047L63.6802 21.7752L63.2452 21.7865L63.1805 21.7218L63.0249 21.728L62.7 22.0392L62.491 22.1553L62.2945 22.1255L62.3241 22.1974L62.0583 22.1687L61.947 22.3207L61.9277 22.6176L61.6551 22.6227L61.604 22.7634L61.2859 22.8641L61.136 23.3099L61.1758 23.8492L60.9679 23.9489L61.002 24.1214L60.8839 24.2426L60.8441 24.407L60.325 24.7419L60.3387 25.0172L60.5397 25.2812L60.2932 25.7743L60.3296 25.9684L60.208 26.1441L60.0138 26.2088L59.8843 26.4553L59.7026 26.5313L59.5334 26.7604L59.3585 27.1415L59.3846 27.4702L59.2812 27.6284L59.0666 27.7753L59.0541 27.8811L58.6315 28.104L58.56 28.292L58.2488 28.4153H57.9046L57.724 28.744L57.5741 28.632L57.5548 28.2622L57.3344 28.1276L56.9903 28.0742L56.8279 28.0917L56.5984 28.3269L56.2475 28.5498L55.5024 28.4204L55.1707 28.6556L55.0867 28.6207L54.9504 28.4266L54.7357 28.3793L54.6323 28.4389L54.5028 28.7204L54.3666 28.8673L54.379 29.1313L54.2836 29.2104L54.1064 29.0902L53.6782 29.0953L53.601 28.9844L53.5556 29.0254L53.4647 28.9371L53.1399 29.1426L52.8162 29.1539L52.5686 29.3213L52.4777 29.3007L52.3811 28.7728L52.2505 28.5673V28.4677L52.3607 28.1862L52.3289 28.0742L52.5947 27.7989L52.6787 27.5288L52.3312 27.2411L52.1279 27.1641L52.0279 27.0008L51.9302 26.6546L51.8916 25.9735L51.8076 25.7917L51.5475 25.6746L51.2169 25.804L50.7433 26.1091L50.2242 26.6546L49.9914 26.7676L49.737 26.8066L49.5552 26.9248L49.2576 27.1826L49.2122 27.3582L48.9885 27.4024L48.8204 27.5966L48.5478 27.7548L48.0934 27.649H47.8595L47.4574 27.7845L47.2109 27.7609L46.9962 27.6202L46.718 27.6726L46.5294 27.6315L45.9615 27.162L45.6435 27.0326L45.773 27.086L45.4936 27.0213L45.3686 27.1199L45.0972 27.0151H44.9722L44.8177 27.1148L44.1328 27.0614L44.0079 26.9022L43.7864 26.8888L43.699 26.8292L43.5581 26.8621L43.4264 26.7357L43.3298 26.782L43.2719 26.7553L43.2197 26.5426L43.3741 26.2098L43.3151 26.103L43.1901 25.9961L43.0436 25.9828L42.8448 25.8503L42.5427 25.7835L42.3224 25.8164L42.0713 25.5441L41.8362 25.537L41.659 25.3438L41.4012 25.2647L41.0707 24.6648L40.8867 24.6987L40.7981 24.6515L40.6584 24.292L40.6073 24.2457H40.438L40.2756 24.1389L40.2313 23.8194L39.9962 23.5667L39.7895 23.5L39.5612 23.2606L39.3408 23.2339L39.208 22.8672L38.8627 22.7141L38.8286 22.6494L38.9819 22.3299L39.2432 22.0526L39.4896 21.8995V21.7465L38.9978 21.4136L38.8899 21.2462L38.8752 21.0654L38.9513 20.9267L39.4124 20.8579L39.4431 20.7326L39.5816 20.6216L39.7656 20.5795L39.8883 20.3854L40.1189 20.4265L40.6266 20.3987L41.0866 20.2878L41.4716 20.3433L41.3944 19.9683L41.1479 19.6345L41.2104 19.4259L41.901 19.2873L42.3621 19.0099L43.0073 18.9257L43.2844 18.7038L43.6524 18.6904L43.7603 18.5507L44.1601 18.3288L44.2521 18.1337L44.2828 17.6755L44.544 17.0777L44.4974 16.5784L44.636 16.3833L44.6974 16.1193L44.452 16.0782L44.2669 16.1193L43.9443 16.2723L43.7296 16.4809L43.4377 16.5641L42.7619 16.5918L42.3473 16.6894L42.0395 17.0366H41.8703L41.6704 16.8835L41.2252 16.7726L40.4414 16.8414L40.2109 16.9811L39.8883 16.8003L39.643 16.7582L39.2284 16.8137L38.9365 16.7726L38.5674 16.5497L38.414 16.411L38.3675 16.2723L38.1289 16.1819L37.8268 15.5574L37.8359 15.4711L38.0517 15.4084L38.2936 15.5574L38.7332 15.6426L39.0012 15.846L39.0614 15.9549L38.9672 16.1347V16.2836L39.1398 16.4942L39.2693 16.486L39.3726 16.2518L39.3295 15.7371L39.2602 15.5882L39.3204 15.1824L39.2091 15.1115H38.7514L38.5696 15.0027L38.3618 14.6041L38.397 14.2836L38.3447 14.1275L38.2073 14.034H37.879L37.7746 13.9867L37.4724 14.0494L37.2044 13.8234L37.1362 13.8152L36.9977 13.9241L36.8682 13.9169L36.5058 13.7679L36.4195 13.659L36.8682 13.2368L36.9874 13.017L37.3225 12.9472L37.4122 13.017H37.9926L38.1993 12.9348L38.3288 12.9585L38.5219 12.7838L38.6514 12.9698L38.9615 13.2266L39.0387 13.3899L39.2057 13.4248L39.6452 13.355L39.6964 13.4135L39.5033 13.9158L39.6702 14.0905L39.8122 13.997L40.0189 13.4372L40.1484 13.3324L40.3029 13.2738L40.5743 13.3437L40.7936 13.3088L40.9015 12.7427L41.2115 12.602L41.2888 12.4274L41.1854 12.0771L41.2501 11.961L41.4046 11.8439L41.5727 11.809L41.6761 11.657L41.7794 11.622L41.7408 11.5173L41.366 11.3652L41.2377 11.2604L41.4569 10.338L41.8056 10.3965L42.1145 10.3729L42.4246 10.2805L42.696 10.338L43.0572 10.2568L43.3276 10.2681L43.8909 10.0873L44.2135 10.1336L44.5224 9.91271L44.7939 9.59735L44.987 9.51517L45.4129 9.46895L45.6196 9.51517L45.7355 9.43402L45.6844 9.16488L45.5299 8.97895L45.439 8.75707L45.1812 8.48896L45.1426 8.32461L46.0069 8.25475L46.1364 8.1962L46.7168 8.27838L46.9747 8.14998L47.1041 8.1849L47.2325 8.36056L47.5551 8.34823L47.9038 8.12635L48.0071 8.23215L48.1616 8.27838L48.5228 8.1962L49.0907 8.38316L49.4008 8.26708L49.762 8.25475L49.8914 8.10375L50.1879 8.28968L50.3685 8.23215L50.5877 8.26708L50.8069 8.20853L50.9489 8.14998L51.0011 8.0678L51.117 8.09142L51.1045 8.1962Z" fill="#3C5F63" stroke="#E5E4E9" stroke-width="2" mask="url(#path-4-inside-4_233_859)"/>
<mask id="path-5-inside-5_233_859" fill="white">
<path d="M45.3515 27.1199L45.347 27.1774L45.2879 27.1795V27.5616L45.0801 27.7486L45.0937 27.8195L45.6082 28.2355L45.7741 28.4933L46.033 28.6556L46.0115 28.7964L45.9013 28.8056L45.6934 28.9289L45.548 28.9104L45.3016 28.709L45.2141 28.6936L44.4134 28.709L44.3429 28.7491L44.3668 29.0244L44.0681 29.4209L43.9386 29.4579L43.8534 29.3613L43.6331 29.3336L43.4195 29.3747L42.9777 29.9962L42.5881 30.1985L42.3291 30.5396L41.8419 30.8734L41.684 31.046L41.4409 31.1374H41.3251L41.0979 30.9854L40.9412 31.0511L40.7208 30.8149L39.7474 31.0265L39.6055 31.0912L39.5986 31.1498L39.443 31.2607L39.2681 31.3079L38.9955 31.1498L38.924 31.1672L38.6139 31.651L38.1709 31.7836L38.1652 31.8894L38.4492 32.0003L38.4765 32.1647L38.0414 32.6464L37.9574 32.8365L38.0483 33.2741L37.8529 33.4323L37.7495 33.421L37.5224 33.5792L37.3736 34.1421L37.4247 34.4123L37.795 34.5181L37.9426 34.6557L38.1845 35.2577L38.2879 35.6799L38.2618 36.0199H38.0289L37.9767 36.0784L37.912 36.3517L37.737 36.4749L37.795 36.6095L37.7109 36.78L37.7041 37.0913L37.5292 37.1735L36.5683 37.3029L36.2116 37.2844L35.7903 37.1735L35.5949 37.2731L35.2916 37.2556L35.1292 37.3491L34.8759 37.2146L34.3568 37.2259L34.0718 37.3851L33.7469 37.4251L33.4811 37.5546L33.4164 37.6429L33.4289 37.872L33.2733 38.0651L32.6963 38.0363L32.5668 38.1884L32.0989 38.3414L31.8592 38.3291L31.4969 38.1822L31.3151 38.1884L30.8676 38.3466L30.5303 38.2767L30.16 38.3938L29.9397 38.2418L29.8034 38.2469L29.5183 38.4174L29.2127 38.2942L28.8436 38.4236L28.5449 38.2058L28.0974 38.0589L27.4613 37.9768L27.3125 38.1124L27.241 38.2829L27.1115 38.3589L26.9616 38.3651L26.8321 38.1298L26.5004 38.1124L26.2994 38.212L26.313 38.4113L26.2676 38.4472H25.8201L25.5145 38.5756L25.1908 38.5993L25.0795 38.6876L24.9671 38.816L24.8046 39.2331L24.3787 39.9552L24.2663 39.9727L24.189 39.9141L24.0913 39.5094L24.013 39.4324L23.8767 39.4211L23.7858 39.192L23.3258 39.1622L23.1759 39.1036L23.0725 38.9927L22.9169 38.3414L22.8385 38.2705L22.6443 38.2829L22.3592 38.4349H22.2229L21.8004 38.7225L21.6391 38.9321L21.0156 38.9978L20.9247 39.0687L20.7555 39.0276L20.5703 38.8479L20.3795 38.4873L20.4386 38.324L20.7043 38.1L20.8213 37.8771L20.5953 37.3368L20.4579 37.27L19.6071 37.4467L19.2051 37.3584L19.1142 37.4518L18.8484 37.3871L18.6474 36.9588L18.6338 36.8067L18.8359 36.4955L18.8462 36.2376L18.7757 36.1062L18.3771 35.8781L18.4872 35.7405L18.5304 35.4436L18.8371 34.9557L18.9325 34.8981L19.5776 34.8406L19.7151 34.7646L19.9059 34.4297L20.3602 34.4862L20.4136 34.6495L20.5408 34.7358L20.7305 34.8118L21.1121 34.8601L21.3756 35.0604L21.7357 35.0132L22.0423 35.0512L22.4444 35.3378L22.8783 35.3481L23.0589 35.5206L23.4712 35.3481L23.662 35.3285L24.0323 35.3573L24.2754 35.4816L24.6354 35.3861L24.741 35.3101L25.1318 35.2238L25.3964 34.9361L25.6713 34.9074L25.7565 34.8118L26.3698 34.63L26.6447 34.4677L26.6765 34.2664L26.7821 34.1996L26.7083 33.9408L26.455 33.6634L26.2857 33.5586L26.4016 33.4436L26.2857 33.3573L26.2539 33.2617L26.0733 33.195L25.9791 33.2237L25.8519 33.3676H25.7031L25.5236 33.157L25.301 32.6495L25.0057 32.4769L24.5604 32.4009L24.5502 32.2664L24.7297 31.8555L24.7195 31.7312L24.5718 31.5391L24.6672 31.2525L24.624 31.1467L24.5184 31.0799L24.1697 30.9751L24.5082 30.707V30.5735L24.4548 30.4389L24.3276 30.3341L23.8415 30.1616L23.7676 30.0845L24.0743 29.8842V29.8072L23.9051 29.6161L24.0209 29.1857L23.9789 29.0706L23.8733 28.9946H23.7143L22.9839 29.1764L22.5966 29.3439L22.2059 29.1251L22.1343 29.0542L22.1536 29.008L22.4808 28.6597L22.6273 28.632L22.8476 28.368L22.8022 28.2273L23.0032 28.028L23.043 27.7866L23.4121 27.7989L23.4258 27.7044L23.7188 27.54L23.7722 27.462L23.7313 27.3706L23.8483 27.3408L24.0039 27.4291H24.3219L24.348 27.7044L24.5684 27.8986L24.6922 27.9509L24.7694 27.8924L24.9194 27.8986L25.1726 28.0742L25.2885 28.2273L25.3987 28.256L25.4384 28.3382L25.6781 28.2797L25.6202 28.028L25.6463 27.9099L25.8405 27.7034L25.8473 27.312L25.8053 27.197L25.5611 27.1589L25.594 27.0008L25.6781 26.9247L25.4839 26.5313L25.2238 26.3967L25.2828 26.2961L25.5157 26.3022L25.5679 26.1379L25.6849 26.1728L25.9734 26.5015L26.0381 26.7368L26.2131 26.8713L26.3232 26.8364L26.3357 26.6659L26.4402 26.6248L26.5572 26.8189L27.1274 27.0069L27.3682 27.1764L27.5624 27.2L27.7771 27.1353L27.8611 26.8713L27.8679 26.4317L27.9781 26.4255L28.0622 26.5251L28.3734 26.5323L28.5097 26.4317L28.4972 26.2961L28.6596 25.8153L28.4835 25.651L28.4972 25.5749L28.6142 25.5102L28.7368 25.6397L28.847 25.6273L29.2366 25.4928L29.3854 25.1815L29.9294 25.0521L29.9896 24.9586L30.2168 24.8353L30.561 24.7295L31.2038 24.6474L31.4049 24.5888L31.548 24.4717L31.7297 24.1604L31.6411 23.9283L31.9421 23.6396L32.2885 23.5862L32.4362 23.3541L32.4578 23.1805L32.3476 22.9873L32.3328 22.6216L32.4282 22.3022L32.5384 22.182L33.0836 22.0823L33.4073 22.1286L33.5697 21.9817V21.8954L33.798 21.8091L33.856 21.7423L33.8707 21.5359L34.0547 21.4033L34.3421 21.4896L34.7328 21.4824L35.4018 21.5698L35.4756 21.503V21.39L35.3212 21.2102L35.3439 21.1363L35.8141 20.9966L36.0356 21.2431L36.0651 21.4434L35.9765 21.5698L35.4756 21.8358L35.1815 22.1614V22.295L35.454 22.4819L35.6449 22.7007L36.0572 22.8743H36.1673L36.2196 22.8148L36.2707 22.3484L36.4104 22.1152L36.9624 21.6622L36.9919 21.4691L37.1316 21.3561L37.1396 21.163L37.4042 21.1763L37.486 21.2369L37.4928 21.4896L37.6666 21.5698L37.7109 21.6622L37.7552 22.2549L38.1005 22.3289L38.3288 22.4347L38.6377 22.4419L38.8445 22.7141L39.1897 22.8672L39.3226 23.2339L39.5441 23.2606L39.7713 23.4999L39.978 23.5667L40.2131 23.8194L40.2574 24.1389L40.4198 24.2457H40.5891L40.6402 24.2919L40.7799 24.6515L40.8685 24.6987L41.0525 24.6648L41.3841 25.2647L41.642 25.3438L41.818 25.5369L42.0543 25.5441L42.3042 25.8163L42.5245 25.7835L43.1731 25.9961L43.3571 26.2098L43.2026 26.5426L43.2537 26.7552L43.3128 26.7819L43.4082 26.7357L43.5411 26.8621L43.6808 26.8292L43.7694 26.8888L43.9897 26.9021L44.1146 27.0614L44.7995 27.1148L44.954 27.0151H45.079L45.3515 27.1199Z"/>
</mask>
<path d="M45.3515 27.1199L45.347 27.1774L45.2879 27.1795V27.5616L45.0801 27.7486L45.0937 27.8195L45.6082 28.2355L45.7741 28.4933L46.033 28.6556L46.0115 28.7964L45.9013 28.8056L45.6934 28.9289L45.548 28.9104L45.3016 28.709L45.2141 28.6936L44.4134 28.709L44.3429 28.7491L44.3668 29.0244L44.0681 29.4209L43.9386 29.4579L43.8534 29.3613L43.6331 29.3336L43.4195 29.3747L42.9777 29.9962L42.5881 30.1985L42.3291 30.5396L41.8419 30.8734L41.684 31.046L41.4409 31.1374H41.3251L41.0979 30.9854L40.9412 31.0511L40.7208 30.8149L39.7474 31.0265L39.6055 31.0912L39.5986 31.1498L39.443 31.2607L39.2681 31.3079L38.9955 31.1498L38.924 31.1672L38.6139 31.651L38.1709 31.7836L38.1652 31.8894L38.4492 32.0003L38.4765 32.1647L38.0414 32.6464L37.9574 32.8365L38.0483 33.2741L37.8529 33.4323L37.7495 33.421L37.5224 33.5792L37.3736 34.1421L37.4247 34.4123L37.795 34.5181L37.9426 34.6557L38.1845 35.2577L38.2879 35.6799L38.2618 36.0199H38.0289L37.9767 36.0784L37.912 36.3517L37.737 36.4749L37.795 36.6095L37.7109 36.78L37.7041 37.0913L37.5292 37.1735L36.5683 37.3029L36.2116 37.2844L35.7903 37.1735L35.5949 37.2731L35.2916 37.2556L35.1292 37.3491L34.8759 37.2146L34.3568 37.2259L34.0718 37.3851L33.7469 37.4251L33.4811 37.5546L33.4164 37.6429L33.4289 37.872L33.2733 38.0651L32.6963 38.0363L32.5668 38.1884L32.0989 38.3414L31.8592 38.3291L31.4969 38.1822L31.3151 38.1884L30.8676 38.3466L30.5303 38.2767L30.16 38.3938L29.9397 38.2418L29.8034 38.2469L29.5183 38.4174L29.2127 38.2942L28.8436 38.4236L28.5449 38.2058L28.0974 38.0589L27.4613 37.9768L27.3125 38.1124L27.241 38.2829L27.1115 38.3589L26.9616 38.3651L26.8321 38.1298L26.5004 38.1124L26.2994 38.212L26.313 38.4113L26.2676 38.4472H25.8201L25.5145 38.5756L25.1908 38.5993L25.0795 38.6876L24.9671 38.816L24.8046 39.2331L24.3787 39.9552L24.2663 39.9727L24.189 39.9141L24.0913 39.5094L24.013 39.4324L23.8767 39.4211L23.7858 39.192L23.3258 39.1622L23.1759 39.1036L23.0725 38.9927L22.9169 38.3414L22.8385 38.2705L22.6443 38.2829L22.3592 38.4349H22.2229L21.8004 38.7225L21.6391 38.9321L21.0156 38.9978L20.9247 39.0687L20.7555 39.0276L20.5703 38.8479L20.3795 38.4873L20.4386 38.324L20.7043 38.1L20.8213 37.8771L20.5953 37.3368L20.4579 37.27L19.6071 37.4467L19.2051 37.3584L19.1142 37.4518L18.8484 37.3871L18.6474 36.9588L18.6338 36.8067L18.8359 36.4955L18.8462 36.2376L18.7757 36.1062L18.3771 35.8781L18.4872 35.7405L18.5304 35.4436L18.8371 34.9557L18.9325 34.8981L19.5776 34.8406L19.7151 34.7646L19.9059 34.4297L20.3602 34.4862L20.4136 34.6495L20.5408 34.7358L20.7305 34.8118L21.1121 34.8601L21.3756 35.0604L21.7357 35.0132L22.0423 35.0512L22.4444 35.3378L22.8783 35.3481L23.0589 35.5206L23.4712 35.3481L23.662 35.3285L24.0323 35.3573L24.2754 35.4816L24.6354 35.3861L24.741 35.3101L25.1318 35.2238L25.3964 34.9361L25.6713 34.9074L25.7565 34.8118L26.3698 34.63L26.6447 34.4677L26.6765 34.2664L26.7821 34.1996L26.7083 33.9408L26.455 33.6634L26.2857 33.5586L26.4016 33.4436L26.2857 33.3573L26.2539 33.2617L26.0733 33.195L25.9791 33.2237L25.8519 33.3676H25.7031L25.5236 33.157L25.301 32.6495L25.0057 32.4769L24.5604 32.4009L24.5502 32.2664L24.7297 31.8555L24.7195 31.7312L24.5718 31.5391L24.6672 31.2525L24.624 31.1467L24.5184 31.0799L24.1697 30.9751L24.5082 30.707V30.5735L24.4548 30.4389L24.3276 30.3341L23.8415 30.1616L23.7676 30.0845L24.0743 29.8842V29.8072L23.9051 29.6161L24.0209 29.1857L23.9789 29.0706L23.8733 28.9946H23.7143L22.9839 29.1764L22.5966 29.3439L22.2059 29.1251L22.1343 29.0542L22.1536 29.008L22.4808 28.6597L22.6273 28.632L22.8476 28.368L22.8022 28.2273L23.0032 28.028L23.043 27.7866L23.4121 27.7989L23.4258 27.7044L23.7188 27.54L23.7722 27.462L23.7313 27.3706L23.8483 27.3408L24.0039 27.4291H24.3219L24.348 27.7044L24.5684 27.8986L24.6922 27.9509L24.7694 27.8924L24.9194 27.8986L25.1726 28.0742L25.2885 28.2273L25.3987 28.256L25.4384 28.3382L25.6781 28.2797L25.6202 28.028L25.6463 27.9099L25.8405 27.7034L25.8473 27.312L25.8053 27.197L25.5611 27.1589L25.594 27.0008L25.6781 26.9247L25.4839 26.5313L25.2238 26.3967L25.2828 26.2961L25.5157 26.3022L25.5679 26.1379L25.6849 26.1728L25.9734 26.5015L26.0381 26.7368L26.2131 26.8713L26.3232 26.8364L26.3357 26.6659L26.4402 26.6248L26.5572 26.8189L27.1274 27.0069L27.3682 27.1764L27.5624 27.2L27.7771 27.1353L27.8611 26.8713L27.8679 26.4317L27.9781 26.4255L28.0622 26.5251L28.3734 26.5323L28.5097 26.4317L28.4972 26.2961L28.6596 25.8153L28.4835 25.651L28.4972 25.5749L28.6142 25.5102L28.7368 25.6397L28.847 25.6273L29.2366 25.4928L29.3854 25.1815L29.9294 25.0521L29.9896 24.9586L30.2168 24.8353L30.561 24.7295L31.2038 24.6474L31.4049 24.5888L31.548 24.4717L31.7297 24.1604L31.6411 23.9283L31.9421 23.6396L32.2885 23.5862L32.4362 23.3541L32.4578 23.1805L32.3476 22.9873L32.3328 22.6216L32.4282 22.3022L32.5384 22.182L33.0836 22.0823L33.4073 22.1286L33.5697 21.9817V21.8954L33.798 21.8091L33.856 21.7423L33.8707 21.5359L34.0547 21.4033L34.3421 21.4896L34.7328 21.4824L35.4018 21.5698L35.4756 21.503V21.39L35.3212 21.2102L35.3439 21.1363L35.8141 20.9966L36.0356 21.2431L36.0651 21.4434L35.9765 21.5698L35.4756 21.8358L35.1815 22.1614V22.295L35.454 22.4819L35.6449 22.7007L36.0572 22.8743H36.1673L36.2196 22.8148L36.2707 22.3484L36.4104 22.1152L36.9624 21.6622L36.9919 21.4691L37.1316 21.3561L37.1396 21.163L37.4042 21.1763L37.486 21.2369L37.4928 21.4896L37.6666 21.5698L37.7109 21.6622L37.7552 22.2549L38.1005 22.3289L38.3288 22.4347L38.6377 22.4419L38.8445 22.7141L39.1897 22.8672L39.3226 23.2339L39.5441 23.2606L39.7713 23.4999L39.978 23.5667L40.2131 23.8194L40.2574 24.1389L40.4198 24.2457H40.5891L40.6402 24.2919L40.7799 24.6515L40.8685 24.6987L41.0525 24.6648L41.3841 25.2647L41.642 25.3438L41.818 25.5369L42.0543 25.5441L42.3042 25.8163L42.5245 25.7835L43.1731 25.9961L43.3571 26.2098L43.2026 26.5426L43.2537 26.7552L43.3128 26.7819L43.4082 26.7357L43.5411 26.8621L43.6808 26.8292L43.7694 26.8888L43.9897 26.9021L44.1146 27.0614L44.7995 27.1148L44.954 27.0151H45.079L45.3515 27.1199Z" fill="#3C5F63" stroke="#E5E4E9" stroke-width="2" mask="url(#path-5-inside-5_233_859)"/>
<mask id="path-6-inside-6_233_859" fill="white">
<path d="M21.9537 4.58648L22.1184 4.65119L22.307 4.82171L22.884 4.93882L23.085 5.16173L23.2861 5.23877L23.7086 5.26753L23.9869 5.09701L24.532 5.06825L25.4282 5.31171L26.1744 5.67535L26.4073 5.86949L26.6072 5.95167L26.7049 5.88079L27.4057 5.84587L28.1258 6.16842L28.3393 6.18588L28.5926 6.30915L29.1185 6.99021L29.5467 7.05492L29.683 7.10115L29.7409 7.18333L29.9419 7.23674L30.377 7.28297L30.6711 7.2049L30.896 7.26551L31.6104 7.18949L32.1943 7.39494L32.9666 7.47095L33.0632 7.62915L33.1188 8.13968L33.4312 8.27528L34.375 8.42217L34.4795 8.41601L34.6965 8.28863L34.8191 8.34513L34.9089 8.31431L34.9759 8.14277L35.0429 7.74831L35.1996 7.71749L35.3223 7.82946L35.4007 8.02155L35.5233 8.04107L35.6687 7.93013L35.7914 7.97019L35.9254 8.09243V8.28452L35.8482 8.49613L35.5347 8.84026L35.512 9.16384L35.3779 9.3056L34.5397 9.56857L34.0365 9.41654L33.5663 9.44735L33.2653 9.68978L32.7951 9.57884L32.393 9.71033L32.2249 9.64869L32.1023 9.66924L31.5991 10.0637L31.1073 9.92194L31.0175 9.99282L30.9846 10.5188L31.1402 10.7109L31.5094 10.8321L31.4537 11.1156L31.5094 11.2871L31.2299 11.3981L31.0516 11.3375L30.8949 11.3683L30.8052 11.2163L30.5814 11.3477L30.4031 11.1865L30.3247 11.206L30.0782 11.51L29.7659 11.6415L29.6648 11.9446L29.2514 12.0052H29.0946L28.3836 11.51L27.8134 11.2573L27.2762 11.2974L26.7957 11.0653L26.5947 11.0848L26.2596 10.8526L25.8678 10.9533L25.711 10.9132L25.4986 10.6194L25.1408 10.4684L24.8285 10.4787L24.3583 10.3975L24.2356 10.489L24.247 10.6502L24.0005 11.0046L23.9562 11.1967L24.0005 11.5604L23.9562 11.7319L23.8222 11.9137L23.453 12.036L23.3519 11.924L22.9271 11.9137L22.5251 11.6415L22.2229 11.5604L21.4517 11.1967L20.2103 10.944L19.8866 10.6502L19.3607 10.4582L19.1937 10.4479L18.8462 10.5896L18.4214 10.5999L18.1533 10.7612H17.8966L17.6842 10.7314L17.3594 10.5496L17.1913 10.5188L16.6438 10.489L16.3939 10.5989L16.1883 10.3554L15.9873 10.3256L15.7601 10.1911L15.5591 9.98563L15.1695 9.77402L14.6118 9.72163L14.4948 9.75655L14.2802 10.0093L14.0791 10.0914L13.9235 10.0678L13.7157 9.94454L13.5078 10.038L13.3852 10.0329L13.3204 9.80997L13.1773 9.71546L13.1194 9.52234L13.3329 9.02311L13.5533 8.98202L13.5612 8.8834L13.71 8.82382L13.8815 8.65741L13.8395 8.55366L13.6771 8.46635L13.6725 8.35951L13.9758 8.17872L14.0928 7.7442L14.2745 7.72057L14.7027 7.93732L14.8844 7.91986L14.9037 7.72674L14.8515 7.63839L14.6175 7.3333L14.3256 7.0806L14.2745 6.96966L14.3199 6.81661L14.4494 6.67587L14.605 6.64095L15.2149 6.74059L15.6693 6.62349L15.6818 5.88079L15.9805 5.81916L16.2145 5.63118L16.4019 5.33841L16.4348 5.03846L16.5711 5.00354L16.9016 5.07955L17.1424 5.03846L17.4798 4.73954L17.8103 4.73337L17.9341 4.79192L18.1351 4.79809L18.6213 4.65119L18.9109 4.85253L19.2187 4.94498L19.3391 4.78679L19.5856 4.69228L19.6696 4.55772L20.1308 4.5988L20.9485 4.32864L21.6039 4.42828L21.9537 4.58648Z"/>
</mask>
<path d="M21.9537 4.58648L22.1184 4.65119L22.307 4.82171L22.884 4.93882L23.085 5.16173L23.2861 5.23877L23.7086 5.26753L23.9869 5.09701L24.532 5.06825L25.4282 5.31171L26.1744 5.67535L26.4073 5.86949L26.6072 5.95167L26.7049 5.88079L27.4057 5.84587L28.1258 6.16842L28.3393 6.18588L28.5926 6.30915L29.1185 6.99021L29.5467 7.05492L29.683 7.10115L29.7409 7.18333L29.9419 7.23674L30.377 7.28297L30.6711 7.2049L30.896 7.26551L31.6104 7.18949L32.1943 7.39494L32.9666 7.47095L33.0632 7.62915L33.1188 8.13968L33.4312 8.27528L34.375 8.42217L34.4795 8.41601L34.6965 8.28863L34.8191 8.34513L34.9089 8.31431L34.9759 8.14277L35.0429 7.74831L35.1996 7.71749L35.3223 7.82946L35.4007 8.02155L35.5233 8.04107L35.6687 7.93013L35.7914 7.97019L35.9254 8.09243V8.28452L35.8482 8.49613L35.5347 8.84026L35.512 9.16384L35.3779 9.3056L34.5397 9.56857L34.0365 9.41654L33.5663 9.44735L33.2653 9.68978L32.7951 9.57884L32.393 9.71033L32.2249 9.64869L32.1023 9.66924L31.5991 10.0637L31.1073 9.92194L31.0175 9.99282L30.9846 10.5188L31.1402 10.7109L31.5094 10.8321L31.4537 11.1156L31.5094 11.2871L31.2299 11.3981L31.0516 11.3375L30.8949 11.3683L30.8052 11.2163L30.5814 11.3477L30.4031 11.1865L30.3247 11.206L30.0782 11.51L29.7659 11.6415L29.6648 11.9446L29.2514 12.0052H29.0946L28.3836 11.51L27.8134 11.2573L27.2762 11.2974L26.7957 11.0653L26.5947 11.0848L26.2596 10.8526L25.8678 10.9533L25.711 10.9132L25.4986 10.6194L25.1408 10.4684L24.8285 10.4787L24.3583 10.3975L24.2356 10.489L24.247 10.6502L24.0005 11.0046L23.9562 11.1967L24.0005 11.5604L23.9562 11.7319L23.8222 11.9137L23.453 12.036L23.3519 11.924L22.9271 11.9137L22.5251 11.6415L22.2229 11.5604L21.4517 11.1967L20.2103 10.944L19.8866 10.6502L19.3607 10.4582L19.1937 10.4479L18.8462 10.5896L18.4214 10.5999L18.1533 10.7612H17.8966L17.6842 10.7314L17.3594 10.5496L17.1913 10.5188L16.6438 10.489L16.3939 10.5989L16.1883 10.3554L15.9873 10.3256L15.7601 10.1911L15.5591 9.98563L15.1695 9.77402L14.6118 9.72163L14.4948 9.75655L14.2802 10.0093L14.0791 10.0914L13.9235 10.0678L13.7157 9.94454L13.5078 10.038L13.3852 10.0329L13.3204 9.80997L13.1773 9.71546L13.1194 9.52234L13.3329 9.02311L13.5533 8.98202L13.5612 8.8834L13.71 8.82382L13.8815 8.65741L13.8395 8.55366L13.6771 8.46635L13.6725 8.35951L13.9758 8.17872L14.0928 7.7442L14.2745 7.72057L14.7027 7.93732L14.8844 7.91986L14.9037 7.72674L14.8515 7.63839L14.6175 7.3333L14.3256 7.0806L14.2745 6.96966L14.3199 6.81661L14.4494 6.67587L14.605 6.64095L15.2149 6.74059L15.6693 6.62349L15.6818 5.88079L15.9805 5.81916L16.2145 5.63118L16.4019 5.33841L16.4348 5.03846L16.5711 5.00354L16.9016 5.07955L17.1424 5.03846L17.4798 4.73954L17.8103 4.73337L17.9341 4.79192L18.1351 4.79809L18.6213 4.65119L18.9109 4.85253L19.2187 4.94498L19.3391 4.78679L19.5856 4.69228L19.6696 4.55772L20.1308 4.5988L20.9485 4.32864L21.6039 4.42828L21.9537 4.58648Z" fill="#3C5F63" stroke="#E5E4E9" stroke-width="2" mask="url(#path-6-inside-6_233_859)"/>
<mask id="path-7-inside-7_233_859" fill="white">
<path d="M73.1813 20.9956L72.9712 20.9504L72.7508 20.7912L72.6543 20.6556L72.6009 20.4327L72.7065 20.1697L72.5657 20.1615L72.5134 20.0978L72.0205 20.1615L71.941 20.2488L71.5355 20.3844L71.1573 20.6155L70.8756 20.5683L70.2588 20.3371L69.9772 20.369L69.4217 20.2971L69.3252 20.3525L68.797 20.409L68.4972 20.1615V19.8194L68.638 19.6684L68.3745 19.5883L68.2246 19.4763L67.0797 19.6838L66.2346 20.0505L66.1551 20.0187L66.137 19.8595L66.3755 19.7321L66.5686 19.5482L66.6481 19.4054L66.6572 19.1425L66.815 18.8312L66.7015 18.6484L66.5606 18.5929L66.3664 18.6401L66.2256 18.6083L65.9257 18.4655L65.6792 17.6293L65.5566 17.4537L65.4157 17.4136L65.8735 17.4301L65.9348 17.3181L66.1551 16.7449L65.9961 16.3073H65.9257L65.7769 16.562L65.5293 16.7295L64.9932 16.825L63.8778 16.6976L63.4462 16.9596L63.235 16.9123L63.085 16.7613L62.9703 16.7295L62.1696 16.8486L61.4824 16.8404L61.2189 16.522L61.1394 16.5066L60.9542 16.6658L60.7952 16.6411L60.8043 16.4583L60.9895 15.9601L60.9542 15.8728L60.6816 15.73L60.6544 15.6416L60.7339 15.4752L60.9361 15.355L61.0076 15.2441L60.9804 15.0048L60.9009 14.8692L60.7782 14.7654L60.576 14.7017L60.4 14.7983L60.3023 14.9328L59.7128 14.9893L59.0608 14.901L58.9018 14.9575L58.8666 14.7983L58.92 14.638L58.8496 14.3442L59.0086 14.0412L59.096 13.9929L59.2982 14.0412L59.8536 14.0248L59.9763 13.9611L60.0388 13.8501L60.0467 13.6272L60.2671 13.4999L60.3114 13.3879L60.258 13.1968L60.2057 13.165L60.0388 13.2769L59.9331 13.2451L59.8627 13.1013L59.4572 12.9975L59.3164 12.8465L58.9734 12.7428L58.8587 12.6473L58.7792 12.6318L58.6292 12.7192L58.3214 12.6791L58.1624 12.5918L58.1011 12.4644L57.599 12.4007L57.4673 12.448L56.9471 12.2179L56.7108 12.1655H56.4996L56.3508 12.3165L56.0691 12.3093L55.6988 12.4439L55.3558 12.3648L55.3467 12.2774L55.575 11.9189L55.734 11.9107L55.8135 11.8152L55.8487 11.6323L56.0248 11.3057V11.1701L55.9805 11.1064L55.4966 10.939V10.6606L55.0469 10.3976L55.0741 10.1829L54.8799 9.72888L54.8356 9.44947L54.8708 9.27484L54.7913 9.23478L54.8969 8.69342L54.8186 8.62152L54.237 8.55783L54.1484 8.58967L54.0519 8.87627L53.3647 8.9564L53.3386 8.82902L53.1455 8.79717L53.1273 8.57324L52.9252 8.59789L52.7661 8.43045L52.2641 8.27945L52.0665 8.08633L52.4845 7.81206L52.6526 7.46177L52.7559 7.37959H52.924L53.0785 7.26351L53.4783 7.25118L53.4919 7.04163L53.4272 6.80742L53.4919 6.67901L53.7498 6.71497L54.0337 6.83105L54.3302 6.77249L54.7686 6.78482L54.8595 6.69134L55.3751 6.60916L55.5046 6.51568L55.7238 6.46946H56.0986L56.2792 6.53931L56.4462 6.49308L56.5632 6.42323L56.6018 6.1541L56.8857 6.03802L57.0913 5.82744L57.8398 5.396L58.0602 5.18541L58.3441 5.22034L58.5247 5.13919L58.8337 5.10426L58.8473 4.87005L59.0665 4.88238L59.1824 4.97586L59.4141 4.92861L59.815 4.98716L60.0206 4.90601L60.2921 4.94093L60.5885 4.82383L61.1439 4.89368L61.337 4.87005L61.8538 4.6605L62.1889 4.69542L62.2661 4.61324L62.4342 4.56702L63.6348 4.42731L63.9437 4.47354L64.0732 4.41499L64.2413 3.925L64.6025 3.63326L64.9126 3.56341L65.0091 3.42884L65.1056 3.50178H65.6701L66.1188 3.56546L66.3709 3.43706L67.0206 3.29633L67.2535 3.34255L67.5908 3.27887L67.8055 3.33126L67.9157 3.43706L68.5585 3.46069L69.2457 3.57163L69.5762 3.51924L70.0896 3.79454L70.3009 3.77707L70.6121 3.89418L70.7416 3.88904L70.9324 4.10579L71.0471 4.12942L71.4231 3.99382L71.8342 4.13558L71.9841 4.15304L72.2761 4.08833L72.5032 4.12942L72.7735 4.03491L72.8178 3.91164L73.2801 3.93013L74.0513 4.11504L74.2399 4.02669L74.3819 3.82125L74.4659 3.80378L74.6817 3.90651L75.3893 3.71236L75.7653 4.01231L75.9652 4.03799L76.089 4.17872L76.29 4.16742L76.5115 4.27631L76.7001 4.51668L77.0294 4.5023L77.1271 4.44889L77.3361 4.52798L77.5565 4.51668L77.7246 4.68104L78.0551 4.61941L78.8456 4.89471L79.5771 4.91833L79.8497 5.0416L80.304 4.85362L80.9264 4.68412L81.0502 4.69542L81.0536 4.82177L80.8855 5.11556L80.9719 5.52851L81.1445 5.84593L81.5386 6.30202L81.8385 6.43248L81.9748 6.62663L82.2951 6.64922L82.3666 6.70264L82.3803 6.82591L82.9084 7.30152L83.0379 7.52957L83.2514 7.72371L83.4786 7.82952L83.6138 8.05859L84.5497 8.11098L84.8609 7.88807L86.4363 8.26917L86.9883 8.25171L87.2018 8.29896L87.2893 8.37498L87.3801 8.77971L87.6334 8.99132L87.7402 9.18444L88.2013 9.27278L88.3342 9.48953L88.6261 9.63026L88.6477 9.79976L88.5739 9.93638L88.8919 10.3524L88.9373 10.5106L89.035 10.5466L89.1747 10.4058L89.2724 10.3935L89.5314 10.4582L89.729 10.6102L89.8199 11.2266L89.7097 11.6724L89.9687 12.0011L89.9334 12.1018H89.6892L89.4734 12.0247L89.3496 12.0607L89.2565 12.1634L88.8465 12.2682L87.8606 12.1634L87.5096 12.2045L87.003 12.1809L86.5623 12.2805L86.3284 12.4151L86.2909 12.7911L86.1387 12.9205L85.9365 13.4618L85.79 13.5892L85.6798 13.8532L85.4913 14.0053L85.4004 14.2518L85.012 14.6041L84.4531 14.7274L83.7001 14.673L83.432 14.7212L83.2855 14.5969L83.4423 14.5517L83.3957 14.4901L83.5002 14.448L83.4729 14.3823L83.5615 14.2908L83.4207 14.11L83.0129 14.07L82.6756 14.223L82.4166 14.5158L82.2349 14.5394L82.0861 14.4747L81.968 14.5281L81.4943 14.9616L81.4762 15.0387L81.358 15.0797L81.3194 15.1671L81.1706 15.2554L80.8378 15.2266L80.5153 15.2903L80.2234 15.5492L79.7043 15.7135L79.6191 15.8892L79.1455 15.9416L78.899 16.0649L78.6923 16.2765L78.698 16.3258L78.6014 16.3474L78.4708 16.4932L78.2834 16.5528L78.1278 16.7285H77.9972L78.004 16.7695L77.812 16.8579L77.511 16.8517L77.4849 16.9041L77.1601 16.9339L76.9988 17.0161L76.8943 17.3684L76.7387 17.4321L76.5569 17.7197L76.1481 17.7557L75.8561 17.6786L75.7528 17.7321L75.6165 17.9786L75.3893 18.1193L74.935 18.3012L74.4875 18.3535L74.4159 18.5128L74.4091 18.8117L74.5647 18.976L74.5977 19.3808L74.4284 19.4743L74.383 19.727L74.04 19.7619L73.6243 20.1676L73.455 20.2498L73.1813 20.9956Z"/>
</mask>
<path d="M73.1813 20.9956L72.9712 20.9504L72.7508 20.7912L72.6543 20.6556L72.6009 20.4327L72.7065 20.1697L72.5657 20.1615L72.5134 20.0978L72.0205 20.1615L71.941 20.2488L71.5355 20.3844L71.1573 20.6155L70.8756 20.5683L70.2588 20.3371L69.9772 20.369L69.4217 20.2971L69.3252 20.3525L68.797 20.409L68.4972 20.1615V19.8194L68.638 19.6684L68.3745 19.5883L68.2246 19.4763L67.0797 19.6838L66.2346 20.0505L66.1551 20.0187L66.137 19.8595L66.3755 19.7321L66.5686 19.5482L66.6481 19.4054L66.6572 19.1425L66.815 18.8312L66.7015 18.6484L66.5606 18.5929L66.3664 18.6401L66.2256 18.6083L65.9257 18.4655L65.6792 17.6293L65.5566 17.4537L65.4157 17.4136L65.8735 17.4301L65.9348 17.3181L66.1551 16.7449L65.9961 16.3073H65.9257L65.7769 16.562L65.5293 16.7295L64.9932 16.825L63.8778 16.6976L63.4462 16.9596L63.235 16.9123L63.085 16.7613L62.9703 16.7295L62.1696 16.8486L61.4824 16.8404L61.2189 16.522L61.1394 16.5066L60.9542 16.6658L60.7952 16.6411L60.8043 16.4583L60.9895 15.9601L60.9542 15.8728L60.6816 15.73L60.6544 15.6416L60.7339 15.4752L60.9361 15.355L61.0076 15.2441L60.9804 15.0048L60.9009 14.8692L60.7782 14.7654L60.576 14.7017L60.4 14.7983L60.3023 14.9328L59.7128 14.9893L59.0608 14.901L58.9018 14.9575L58.8666 14.7983L58.92 14.638L58.8496 14.3442L59.0086 14.0412L59.096 13.9929L59.2982 14.0412L59.8536 14.0248L59.9763 13.9611L60.0388 13.8501L60.0467 13.6272L60.2671 13.4999L60.3114 13.3879L60.258 13.1968L60.2057 13.165L60.0388 13.2769L59.9331 13.2451L59.8627 13.1013L59.4572 12.9975L59.3164 12.8465L58.9734 12.7428L58.8587 12.6473L58.7792 12.6318L58.6292 12.7192L58.3214 12.6791L58.1624 12.5918L58.1011 12.4644L57.599 12.4007L57.4673 12.448L56.9471 12.2179L56.7108 12.1655H56.4996L56.3508 12.3165L56.0691 12.3093L55.6988 12.4439L55.3558 12.3648L55.3467 12.2774L55.575 11.9189L55.734 11.9107L55.8135 11.8152L55.8487 11.6323L56.0248 11.3057V11.1701L55.9805 11.1064L55.4966 10.939V10.6606L55.0469 10.3976L55.0741 10.1829L54.8799 9.72888L54.8356 9.44947L54.8708 9.27484L54.7913 9.23478L54.8969 8.69342L54.8186 8.62152L54.237 8.55783L54.1484 8.58967L54.0519 8.87627L53.3647 8.9564L53.3386 8.82902L53.1455 8.79717L53.1273 8.57324L52.9252 8.59789L52.7661 8.43045L52.2641 8.27945L52.0665 8.08633L52.4845 7.81206L52.6526 7.46177L52.7559 7.37959H52.924L53.0785 7.26351L53.4783 7.25118L53.4919 7.04163L53.4272 6.80742L53.4919 6.67901L53.7498 6.71497L54.0337 6.83105L54.3302 6.77249L54.7686 6.78482L54.8595 6.69134L55.3751 6.60916L55.5046 6.51568L55.7238 6.46946H56.0986L56.2792 6.53931L56.4462 6.49308L56.5632 6.42323L56.6018 6.1541L56.8857 6.03802L57.0913 5.82744L57.8398 5.396L58.0602 5.18541L58.3441 5.22034L58.5247 5.13919L58.8337 5.10426L58.8473 4.87005L59.0665 4.88238L59.1824 4.97586L59.4141 4.92861L59.815 4.98716L60.0206 4.90601L60.2921 4.94093L60.5885 4.82383L61.1439 4.89368L61.337 4.87005L61.8538 4.6605L62.1889 4.69542L62.2661 4.61324L62.4342 4.56702L63.6348 4.42731L63.9437 4.47354L64.0732 4.41499L64.2413 3.925L64.6025 3.63326L64.9126 3.56341L65.0091 3.42884L65.1056 3.50178H65.6701L66.1188 3.56546L66.3709 3.43706L67.0206 3.29633L67.2535 3.34255L67.5908 3.27887L67.8055 3.33126L67.9157 3.43706L68.5585 3.46069L69.2457 3.57163L69.5762 3.51924L70.0896 3.79454L70.3009 3.77707L70.6121 3.89418L70.7416 3.88904L70.9324 4.10579L71.0471 4.12942L71.4231 3.99382L71.8342 4.13558L71.9841 4.15304L72.2761 4.08833L72.5032 4.12942L72.7735 4.03491L72.8178 3.91164L73.2801 3.93013L74.0513 4.11504L74.2399 4.02669L74.3819 3.82125L74.4659 3.80378L74.6817 3.90651L75.3893 3.71236L75.7653 4.01231L75.9652 4.03799L76.089 4.17872L76.29 4.16742L76.5115 4.27631L76.7001 4.51668L77.0294 4.5023L77.1271 4.44889L77.3361 4.52798L77.5565 4.51668L77.7246 4.68104L78.0551 4.61941L78.8456 4.89471L79.5771 4.91833L79.8497 5.0416L80.304 4.85362L80.9264 4.68412L81.0502 4.69542L81.0536 4.82177L80.8855 5.11556L80.9719 5.52851L81.1445 5.84593L81.5386 6.30202L81.8385 6.43248L81.9748 6.62663L82.2951 6.64922L82.3666 6.70264L82.3803 6.82591L82.9084 7.30152L83.0379 7.52957L83.2514 7.72371L83.4786 7.82952L83.6138 8.05859L84.5497 8.11098L84.8609 7.88807L86.4363 8.26917L86.9883 8.25171L87.2018 8.29896L87.2893 8.37498L87.3801 8.77971L87.6334 8.99132L87.7402 9.18444L88.2013 9.27278L88.3342 9.48953L88.6261 9.63026L88.6477 9.79976L88.5739 9.93638L88.8919 10.3524L88.9373 10.5106L89.035 10.5466L89.1747 10.4058L89.2724 10.3935L89.5314 10.4582L89.729 10.6102L89.8199 11.2266L89.7097 11.6724L89.9687 12.0011L89.9334 12.1018H89.6892L89.4734 12.0247L89.3496 12.0607L89.2565 12.1634L88.8465 12.2682L87.8606 12.1634L87.5096 12.2045L87.003 12.1809L86.5623 12.2805L86.3284 12.4151L86.2909 12.7911L86.1387 12.9205L85.9365 13.4618L85.79 13.5892L85.6798 13.8532L85.4913 14.0053L85.4004 14.2518L85.012 14.6041L84.4531 14.7274L83.7001 14.673L83.432 14.7212L83.2855 14.5969L83.4423 14.5517L83.3957 14.4901L83.5002 14.448L83.4729 14.3823L83.5615 14.2908L83.4207 14.11L83.0129 14.07L82.6756 14.223L82.4166 14.5158L82.2349 14.5394L82.0861 14.4747L81.968 14.5281L81.4943 14.9616L81.4762 15.0387L81.358 15.0797L81.3194 15.1671L81.1706 15.2554L80.8378 15.2266L80.5153 15.2903L80.2234 15.5492L79.7043 15.7135L79.6191 15.8892L79.1455 15.9416L78.899 16.0649L78.6923 16.2765L78.698 16.3258L78.6014 16.3474L78.4708 16.4932L78.2834 16.5528L78.1278 16.7285H77.9972L78.004 16.7695L77.812 16.8579L77.511 16.8517L77.4849 16.9041L77.1601 16.9339L76.9988 17.0161L76.8943 17.3684L76.7387 17.4321L76.5569 17.7197L76.1481 17.7557L75.8561 17.6786L75.7528 17.7321L75.6165 17.9786L75.3893 18.1193L74.935 18.3012L74.4875 18.3535L74.4159 18.5128L74.4091 18.8117L74.5647 18.976L74.5977 19.3808L74.4284 19.4743L74.383 19.727L74.04 19.7619L73.6243 20.1676L73.455 20.2498L73.1813 20.9956Z" fill="#3C5F63" stroke="#E5E4E9" stroke-width="2" mask="url(#path-7-inside-7_233_859)"/>
</g>
<defs>
<clipPath id="clip0_233_859">
<rect width="90" height="40" fill="white"/>
</clipPath>
</defs>
</svg>
