<svg width="24" height="24" viewBox="0 0 24 24" fill="none" xmlns="http://www.w3.org/2000/svg">
<path d="M15.68 0C22.4 0 24 1.6 24 8.32V15.68C24 22.4 22.4 24 15.68 24H8.32C1.6 24 0 22.4 0 15.68V8.32C0 1.6 1.6 0 8.32 0H15.68Z" fill="#2787F5"/>
<path d="M6.24991 7.5H4.49991C3.99991 7.5 3.8999 7.73538 3.8999 7.99493C3.8999 8.45844 4.49319 10.7574 6.66235 13.798C8.10845 15.8744 10.1459 17 11.9999 17C13.1123 17 13.2499 16.75 13.2499 16.3194V14.75C13.2499 14.25 13.3553 14.1502 13.7075 14.1502C13.9671 14.1502 14.4121 14.28 15.4503 15.2812C16.6369 16.4677 16.8325 17 17.4999 17H19.2499C19.7499 17 19.9999 16.75 19.8557 16.2566C19.6979 15.7649 19.1314 15.0515 18.3796 14.2058C17.9717 13.7238 17.3599 13.2047 17.1745 12.9451C16.915 12.6114 16.9891 12.4631 17.1745 12.1664L17.2057 12.1223C17.4694 11.7475 19.3225 9.09012 19.5291 8.14328C19.6403 7.77247 19.5291 7.5 18.9999 7.5H17.2499C16.8049 7.5 16.5998 7.73538 16.4885 7.99493C16.4885 7.99493 15.5986 10.1641 14.3379 11.5732C13.93 11.981 13.7446 12.1108 13.5221 12.1108C13.4109 12.1108 13.2499 11.981 13.2499 11.6102V8.14328C13.2499 7.69831 13.1207 7.5 12.7499 7.5H9.99991C9.72184 7.5 9.55461 7.70652 9.55461 7.90225C9.55461 8.32407 10.1849 8.42134 10.2499 9.60792V12.185C10.2499 12.75 10.1479 12.8524 9.92539 12.8524C9.33213 12.8524 7.88902 10.6736 7.03313 8.18034C6.8654 7.69575 6.69716 7.5 6.24991 7.5Z" fill="white"/>
</svg>
